<svg id="Layer_1" data-name="Layer 1" xmlns="http://www.w3.org/2000/svg" viewBox="0 0 798.08 798.08"><defs><style>.cls-1{fill:#ffb600;}.cls-2{fill:#ffdd2e;}.cls-3{fill:#c16100;}.cls-4{fill:#ff9b00;}</style></defs><title>logo</title><circle class="cls-1" cx="970.9" cy="540" r="399.04" transform="translate(-669.32 703.73) rotate(-45)"/><path class="cls-2" d="M1171.08,194.86,625.75,740.19a400.87,400.87,0,0,0,129.9,135.74l551.18-551.18A401,401,0,0,0,1171.08,194.86Z" transform="translate(-571.85 -140.96)"/><circle class="cls-3" cx="970.9" cy="540" r="324.11" transform="translate(-669.32 703.73) rotate(-45)"/><path class="cls-4" d="M970.87,846c-118.45,0-227.34-69.4-277.39-176.8a8.16,8.16,0,1,1,14.79-6.89C755.66,764,858.74,829.65,970.87,829.65s215.22-65.7,262.65-167.38a8.16,8.16,0,0,1,14.79,6.9C1198.2,776.57,1089.3,846,970.87,846Z" transform="translate(-571.85 -140.96)"/><path class="cls-4" d="M1240.92,422.44a8.17,8.17,0,0,1-7.4-4.71C1186.14,316.05,1083,250.35,970.87,250.35s-215.21,65.7-262.6,167.38a8.16,8.16,0,0,1-14.79-6.9c50-107.4,158.94-176.8,277.39-176.8s227.39,69.4,277.44,176.8a8.17,8.17,0,0,1-7.39,11.61Z" transform="translate(-571.85 -140.96)"/><path class="cls-4" d="M858.67,544.63,798.4,591.56,791,565.19a7.88,7.88,0,0,0-7.54-5.75l-27.71-.14a7.88,7.88,0,0,0-.08,15.75l21.77.11,6.3,22.49-45.32-.23a25.12,25.12,0,1,0-.22,15.75l53.24.27a7.48,7.48,0,0,0,5,.3,7.82,7.82,0,0,0,5.18-4.72l64.58-50.29,13.36.07.08-15.75L863.55,543A7.83,7.83,0,0,0,858.67,544.63Zm-144.13,69.7A9.37,9.37,0,1,1,724,605,9.38,9.38,0,0,1,714.54,614.33Z" transform="translate(-571.85 -140.96)"/><path class="cls-4" d="M866.38,522.83l-67.59-53.76a7.86,7.86,0,0,0-4.86-1.71l-55-.28a25.14,25.14,0,1,0,0,15.75l52.1.26,23.9,19-11.51,7.57-26.71-.14a25.13,25.13,0,1,0,1.43,15.76l27.57.14a7.9,7.9,0,0,0,4.37-1.29L828,512.42l30.72,24.43a7.86,7.86,0,0,0,4.86,1.71l16.08.09.08-15.75ZM715.21,484.42a9.38,9.38,0,1,1,9.42-9.33A9.38,9.38,0,0,1,715.21,484.42Zm38.56,44.52a9.37,9.37,0,1,1,9.42-9.32A9.38,9.38,0,0,1,753.77,528.94Z" transform="translate(-571.85 -140.96)"/><path class="cls-4" d="M1078.25,543l-16.09.08.08,15.75,13.36-.07L1140.18,609a7.85,7.85,0,0,0,5.18,4.72,7.48,7.48,0,0,0,5-.3l53.24-.27a25.12,25.12,0,1,0-.22-15.75l-45.31.23,6.3-22.49,21.76-.11a7.88,7.88,0,1,0-.08-15.75l-27.7.14a7.88,7.88,0,0,0-7.55,5.75l-7.38,26.37-60.27-46.93A7.87,7.87,0,0,0,1078.25,543Zm139.58,62a9.37,9.37,0,1,1,9.42,9.32A9.38,9.38,0,0,1,1217.83,605Z" transform="translate(-571.85 -140.96)"/><path class="cls-4" d="M1062.06,522.9l.08,15.75,16.08-.09a7.91,7.91,0,0,0,4.87-1.71l30.71-24.43,17.83,11.72a7.84,7.84,0,0,0,4.36,1.29l27.57-.14a25.11,25.11,0,1,0,1.43-15.76l-26.7.14-11.52-7.57,23.9-19,52.11-.26a25.11,25.11,0,1,0,0-15.75l-55,.28a7.88,7.88,0,0,0-4.86,1.71l-67.58,53.76Zm155.1-47.81a9.38,9.38,0,1,1,9.42,9.33A9.4,9.4,0,0,1,1217.16,475.09Zm-38.56,44.53a9.38,9.38,0,1,1,9.43,9.32A9.39,9.39,0,0,1,1178.6,519.62Z" transform="translate(-571.85 -140.96)"/><path class="cls-1" d="M1131.25,458.28c0-63.52-50.71-116.09-116.12-124V274.33H965.37v58.85H929.43V274.33H879.66v58.85H810.54v82.94h31.38V667.71H810.54v82.95h69.12v55h49.77v-55h35.94v55h49.76V749.58c65.41-7.93,116.12-60.51,116.12-124,0-32.13-13-61.45-34.26-83.63C1118.27,519.74,1131.25,490.41,1131.25,458.28ZM998,416.12c27.76,0,50.34,18.92,50.34,42.16s-22.58,42.17-50.34,42.17H924.86V416.12Zm0,251.59H924.86V583.39H998c27.76,0,50.34,18.91,50.34,42.16S1025.73,667.71,998,667.71Z" transform="translate(-571.85 -140.96)"/><path class="cls-2" d="M1029.18,336.76l-79.36,79.36H998c27.76,0,50.34,18.92,50.34,42.16s-22.58,42.17-50.34,42.17H924.86V441.08L841.92,524V667.71H810.54v82.95h69.12v1.25l84.2-84.2h-39V583.39H998c14.51,0,27.57,5.2,36.76,13.45l82.14-82.14a118.05,118.05,0,0,0,14.38-56.42C1131.25,399.4,1087.65,350,1029.18,336.76Z" transform="translate(-571.85 -140.96)"/></svg>