<svg id="Layer_1" data-name="Layer 1" xmlns="http://www.w3.org/2000/svg" viewBox="0 0 739.83 739.83"><defs><style>.cls-1{fill:#ffd345;}.cls-2{fill:#ffe68d;}.cls-3{fill:#ff9f4c;}.cls-4{fill:#ffba49;}.cls-5{fill:#fff2d2;}</style></defs><title>hom_pic</title><circle class="cls-1" cx="369.91" cy="369.91" r="369.91"/><path class="cls-2" d="M1192.31,717.66l-288.88-61.4,286.36-71.4c-2.28-11.29-5.1-22.38-8.38-33.27L895.14,623,1120.9,433.53q-10.44-13.63-22.09-26.25L873.08,596.69,992.89,327.6q-15.28-7.68-31.35-13.94L844.35,576.89V288.83c-5.69-.26-11.4-.44-17.16-.44s-11.46.18-17.15.44V583.29L680.9,318.51c-10.54,4.54-20.85,9.53-30.85,15L779.2,598.33,547,416.92q-11.21,13-21.18,27L758.08,625.36,469.45,564q-4.33,16.49-7.12,33.56L751,658.92l-286.6,71.46c2.23,11.29,5,22.39,8.24,33.3l286.66-71.47-226.45,190q10.41,13.66,22,26.32l226.49-190L661,988.75q15.27,7.69,31.33,14L810,738.29v289.5c5.69.26,11.4.43,17.15.43s11.47-.17,17.16-.43V731.89l129.71,266q15.81-6.84,30.83-15.06L875.18,716.85l232.93,182q11.16-13,21.09-27.05l-232.9-182,289,61.44C1188.17,740.25,1190.47,729,1192.31,717.66Z" transform="translate(-457.28 -288.39)"/><circle class="cls-3" cx="369.91" cy="369.91" r="311.22"/><circle class="cls-4" cx="827.19" cy="658.31" r="291.62" transform="translate(-680.49 489.33) rotate(-45)"/><path class="cls-5" d="M970.32,687.09c-4.08-27-19.81-43.3-46-50-3-.76-6.48-.11-9.12-2.94a9.91,9.91,0,0,1,1.72-2.14c16.41-11.46,23.12-27.43,23.18-47.14.09-30.15-17-53.18-45.86-61.39-14.75-4.2-29.75-5.66-45-5.51-5.62,0-8.25-1.35-8.49-7.68-.57-14.88-2.2-29.72-3-44.61a13.66,13.66,0,0,0-.84-4.32l-36.32,2.66a10.41,10.41,0,0,0,0,1.25c1.59,15.55,2.63,31.15,4.19,46.7.44,4.34-.67,6.46-5.11,6.85-5.6.5-11.21,1-16.73,2-5.94,1-7.56-1.21-7.8-7-.63-15.12-2.06-30.21-2.93-45.33a11.21,11.21,0,0,0-.4-2.36l-34.74,2.55a10.55,10.55,0,0,0-.16,3.42c1.28,14.1,2.11,28.24,3.3,42.35.91,10.7.58,11.27-9.74,12.32-1,.1-1.95.12-2.93.2q-26.26,2.18-52.54,4.33l-.95.09,3.82,39.22c6.4-.7,12.83-1.24,19.27-1.66,12.12-.78,19,4.49,20.82,16.62,1.24,8.2,1.56,16.55,2.31,24.82q6,66.83,12.06,133.65c.87,9.76-3.19,14.53-13,15.64-5.33.61-10.68,1.14-16,1.44-.57,8.46-1.88,27.34-3.23,44.37,18.81-1.54,37.72-1.79,56.46-4.21,5.38-.69,7,1.15,7.27,6.7.74,15.76,2.33,31.48,3.46,47.23l37.16-2.1c0-.25,0-.41,0-.68-1.53-14.82-2.23-29.72-3.55-44.57-.49-5.51.53-8.83,7-8.9a83.86,83.86,0,0,0,14.55-1.55c5.64-1,7.84.74,8.14,6.64.77,15.37,2.2,30.7,3.17,46,0,.52.14.89.2,1.36l37.46-2.11a.48.48,0,0,0,0-.12c-1.36-15.3-1.72-30.69-3.08-46-.6-6.81,1.75-9.48,8.35-10.47a191.29,191.29,0,0,0,45.15-12.42c21.67-9,38.94-22.74,46.07-46.11C972.59,718.85,972.72,703,970.32,687.09Zm-180-48.52c-1.72-21.14-3.64-42.27-5.62-63.39-.38-4.11.33-5.82,5.2-6.15,19.71-1.35,39.45-3.85,58.83,2,24.37,7.41,33,35.15,16.27,51.86a48.89,48.89,0,0,1-21.5,12.28c-17,5.64-32.56,6.61-48.14,7.69C792,643.12,790.58,642.17,790.29,638.57ZM881.41,743a64.26,64.26,0,0,1-14.26,6.43c-20.95,7.28-41.74,8.31-62.35,10.52-3.5.38-4.87-1.26-5.17-4.5q-3.25-35.36-6.6-70.68c-.29-3-.11-5,3.82-5.34,20.9-1.85,41.74-4.69,62.79-2A68.36,68.36,0,0,1,880,683.2c12.55,5.87,19.12,15.74,19.44,29.4S893.18,736.28,881.41,743Z" transform="translate(-457.28 -288.39)"/></svg>