<svg xmlns="http://www.w3.org/2000/svg" xmlns:xlink="http://www.w3.org/1999/xlink" viewBox="0 0 321.3 321.3"><defs><style>.cls-1{isolation:isolate;}.cls-2{fill:url(#linear-gradient);}.cls-3{fill:url(#radial-gradient);}.cls-4{fill:url(#radial-gradient-2);}.cls-5{fill:url(#radial-gradient-3);}.cls-6{fill:url(#radial-gradient-4);}.cls-7{fill:url(#linear-gradient-2);}.cls-8{fill:url(#linear-gradient-3);}.cls-9{fill:url(#linear-gradient-4);}.cls-10{fill:url(#linear-gradient-5);}.cls-11{fill:url(#linear-gradient-6);}.cls-12{fill:url(#linear-gradient-7);}.cls-13{fill:url(#linear-gradient-8);}.cls-14{fill:url(#linear-gradient-9);}.cls-15{fill:url(#linear-gradient-10);}.cls-16{fill:url(#linear-gradient-11);}.cls-17{fill:url(#linear-gradient-12);}.cls-18{fill:url(#linear-gradient-13);}.cls-19{fill:url(#linear-gradient-14);}.cls-20{fill:url(#linear-gradient-15);}.cls-21{fill:url(#linear-gradient-16);}.cls-22{fill:url(#linear-gradient-17);}.cls-23{fill:url(#linear-gradient-18);}.cls-24{fill:url(#linear-gradient-19);}.cls-25{fill:url(#linear-gradient-20);}.cls-26{fill:url(#linear-gradient-21);}.cls-27{fill:url(#linear-gradient-22);}.cls-28{fill:url(#linear-gradient-23);}.cls-29{fill:url(#linear-gradient-24);}.cls-30{fill:url(#linear-gradient-25);}.cls-31{fill:url(#linear-gradient-26);}.cls-32{fill:url(#linear-gradient-27);}.cls-33{fill:url(#linear-gradient-28);}.cls-34{fill:url(#linear-gradient-29);}.cls-35{fill:url(#linear-gradient-30);}.cls-36{fill:url(#linear-gradient-31);}.cls-37{fill:url(#linear-gradient-32);}.cls-38{fill:url(#linear-gradient-33);}.cls-39{fill:url(#linear-gradient-34);}.cls-40{fill:url(#linear-gradient-35);}.cls-41{fill:url(#linear-gradient-36);}.cls-42{fill:url(#linear-gradient-37);}.cls-43{fill:url(#linear-gradient-38);}.cls-44{fill:url(#linear-gradient-39);}.cls-45{fill:url(#linear-gradient-40);}.cls-46{fill:url(#linear-gradient-41);}.cls-47{fill:url(#linear-gradient-42);}.cls-48{fill:url(#linear-gradient-43);}.cls-49{fill:url(#linear-gradient-44);}.cls-50{fill:url(#linear-gradient-45);}.cls-51{fill:url(#linear-gradient-46);}.cls-52{fill:url(#radial-gradient-5);}.cls-53{fill:url(#radial-gradient-6);}.cls-54{fill:url(#radial-gradient-7);}.cls-55{fill:url(#radial-gradient-8);}.cls-56{fill:url(#radial-gradient-9);}.cls-57{fill:url(#radial-gradient-10);}.cls-58{fill:url(#radial-gradient-11);}.cls-59{fill:url(#radial-gradient-12);}.cls-60{fill:url(#radial-gradient-13);}.cls-61{fill:url(#radial-gradient-14);}.cls-62{fill:url(#radial-gradient-15);}.cls-63{fill:url(#radial-gradient-16);}.cls-64{fill:url(#linear-gradient-47);}.cls-65{fill:url(#linear-gradient-48);}.cls-66{fill:url(#radial-gradient-17);}.cls-67{fill:url(#radial-gradient-18);}.cls-68{fill:url(#radial-gradient-19);}.cls-69{fill:url(#radial-gradient-20);}.cls-70{fill:url(#radial-gradient-21);}.cls-71{fill:url(#radial-gradient-22);}.cls-72{fill:url(#radial-gradient-23);}.cls-73{fill:url(#radial-gradient-24);}.cls-74{fill:url(#radial-gradient-25);}.cls-75{fill:url(#radial-gradient-26);}.cls-76{fill:url(#radial-gradient-27);}.cls-77{fill:url(#radial-gradient-28);}.cls-78{fill:url(#radial-gradient-29);}.cls-79{fill:url(#radial-gradient-30);}.cls-80{fill:url(#radial-gradient-31);}.cls-81{fill:url(#radial-gradient-32);}.cls-82{fill:url(#radial-gradient-33);}.cls-83{fill:url(#radial-gradient-34);}.cls-84{fill:url(#radial-gradient-35);}.cls-85{fill:url(#radial-gradient-36);}.cls-86{fill:url(#radial-gradient-37);}.cls-87{fill:url(#radial-gradient-39);}.cls-88{fill:url(#radial-gradient-40);}.cls-89{fill:url(#radial-gradient-41);}.cls-90{fill:url(#radial-gradient-42);}.cls-91{fill:url(#radial-gradient-43);}.cls-92{fill:url(#radial-gradient-44);}.cls-93{fill:url(#radial-gradient-45);}.cls-94{fill:url(#radial-gradient-46);}.cls-95{fill:url(#radial-gradient-47);}.cls-96{fill:url(#radial-gradient-48);}.cls-97{fill:url(#radial-gradient-49);}.cls-98{fill:url(#radial-gradient-50);}.cls-99{fill:url(#radial-gradient-51);}.cls-100{fill:url(#radial-gradient-52);}.cls-101{fill:url(#radial-gradient-53);}.cls-102{fill:url(#radial-gradient-54);}.cls-103{fill:url(#radial-gradient-55);}.cls-104{fill:url(#radial-gradient-56);}.cls-105,.cls-113{mix-blend-mode:multiply;}.cls-105{fill:url(#linear-gradient-49);}.cls-106{fill:url(#linear-gradient-50);}.cls-107{fill:url(#linear-gradient-51);}.cls-108{fill:url(#linear-gradient-52);}.cls-109{fill:url(#linear-gradient-53);}.cls-110{fill:url(#linear-gradient-54);}.cls-111{fill:url(#radial-gradient-57);}.cls-112{fill:url(#radial-gradient-58);}.cls-113{opacity:0.69;fill:url(#radial-gradient-60);}</style><linearGradient id="linear-gradient" x1="678.5" y1="380.12" x2="999.8" y2="380.12" gradientTransform="translate(514.57 -482.03) rotate(45)" gradientUnits="userSpaceOnUse"><stop offset="0" stop-color="#f2ebc6"/><stop offset="1" stop-color="#c39d49"/></linearGradient><radialGradient id="radial-gradient" cx="798.26" cy="249.9" r="314.82" gradientUnits="userSpaceOnUse"><stop offset="0" stop-color="#c39d49"/><stop offset="1" stop-color="#f2ebc6"/></radialGradient><radialGradient id="radial-gradient-2" cx="120.23" cy="31.9" r="311.25" gradientUnits="userSpaceOnUse"><stop offset="0" stop-color="#1e1611"/><stop offset="1" stop-color="#5e3e1b"/></radialGradient><radialGradient id="radial-gradient-3" cx="799.39" cy="253.5" r="306.11" gradientTransform="translate(514.57 -482.03) rotate(45)" gradientUnits="userSpaceOnUse"><stop offset="0" stop-color="#c39d49"/><stop offset="1" stop-color="#5e3e1b"/></radialGradient><radialGradient id="radial-gradient-4" cx="802.66" cy="263.91" r="280.95" gradientTransform="translate(514.57 -482.03) rotate(45)" gradientUnits="userSpaceOnUse"><stop offset="0" stop-color="#5e3e1b"/><stop offset="1" stop-color="#1e1611"/></radialGradient><linearGradient id="linear-gradient-2" x1="822.16" y1="240.71" x2="1042.23" y2="547.02" gradientTransform="translate(22.76 -66.34) rotate(4.66)" xlink:href="#radial-gradient"/><linearGradient id="linear-gradient-3" x1="911.93" y1="574.46" x2="1132.01" y2="880.78" gradientTransform="translate(-10.16 -314.85) rotate(4.66)" xlink:href="#radial-gradient"/><linearGradient id="linear-gradient-4" x1="957.87" y1="911.44" x2="1177.95" y2="1217.75" gradientTransform="matrix(1, 0.08, -0.08, 1, 2.9, -557.44)" xlink:href="#radial-gradient"/><linearGradient id="linear-gradient-5" x1="959.63" y1="1241.51" x2="1179.71" y2="1547.83" gradientTransform="translate(60.56 -786.88) rotate(4.66)" xlink:href="#radial-gradient"/><linearGradient id="linear-gradient-6" x1="916.85" y1="1554.03" x2="1136.94" y2="1860.36" gradientTransform="translate(161.27 -995.63) rotate(4.66)" xlink:href="#radial-gradient"/><linearGradient id="linear-gradient-7" x1="831.77" y1="1838.88" x2="1051.84" y2="2145.19" gradientTransform="translate(301.2 -1176.88) rotate(4.66)" xlink:href="#radial-gradient"/><linearGradient id="linear-gradient-8" x1="704.07" y1="2087.44" x2="923.4" y2="2392.72" gradientTransform="translate(477.67 -1326.42) rotate(4.66)" xlink:href="#radial-gradient"/><linearGradient id="linear-gradient-9" x1="540.42" y1="2294.18" x2="759.75" y2="2599.46" gradientTransform="translate(684.67 -1439) rotate(4.66)" xlink:href="#radial-gradient"/><linearGradient id="linear-gradient-10" x1="345.4" y1="2451.88" x2="564.74" y2="2757.16" gradientTransform="translate(915.43 -1511.52) rotate(4.66)" xlink:href="#radial-gradient"/><linearGradient id="linear-gradient-11" x1="124.98" y1="2554.61" x2="344.31" y2="2859.88" gradientTransform="translate(1162.91 -1540.83) rotate(4.66)" xlink:href="#radial-gradient"/><linearGradient id="linear-gradient-12" x1="-114.29" y1="2600.46" x2="105.04" y2="2905.73" gradientTransform="translate(1419.66 -1527.01) rotate(4.66)" xlink:href="#radial-gradient"/><linearGradient id="linear-gradient-13" x1="-366.29" y1="2587.82" x2="-146.96" y2="2893.09" gradientTransform="matrix(1, 0.08, -0.08, 1, 1678.95, -1470.42)" xlink:href="#radial-gradient"/><linearGradient id="linear-gradient-14" x1="-622.29" y1="2517.35" x2="-402.96" y2="2822.63" gradientTransform="translate(1931.92 -1372.94) rotate(4.66)" xlink:href="#radial-gradient"/><linearGradient id="linear-gradient-15" x1="-874.74" y1="2390.51" x2="-655.4" y2="2695.8" gradientTransform="translate(2171.13 -1236.95) rotate(4.66)" xlink:href="#radial-gradient"/><linearGradient id="linear-gradient-16" x1="-1115.01" y1="2210.77" x2="-895.68" y2="2516.05" gradientTransform="matrix(1, 0.08, -0.08, 1, 2388.4, -1066.15)" xlink:href="#radial-gradient"/><linearGradient id="linear-gradient-17" x1="-1337.66" y1="1984.81" x2="-1118.33" y2="2290.09" gradientTransform="translate(2578.85 -866.98) rotate(4.66)" xlink:href="#radial-gradient"/><linearGradient id="linear-gradient-18" x1="-1535.14" y1="1718.78" x2="-1315.81" y2="2024.06" gradientTransform="translate(2735.97 -644.83) rotate(4.66)" xlink:href="#radial-gradient"/><linearGradient id="linear-gradient-19" x1="-1700.98" y1="1421.21" x2="-1481.64" y2="1726.49" gradientTransform="matrix(1, 0.08, -0.08, 1, 2854.53, -406.75)" xlink:href="#radial-gradient"/><linearGradient id="linear-gradient-20" x1="-1830.29" y1="1099.79" x2="-1611.27" y2="1404.63" gradientTransform="translate(2930.85 -159.03) rotate(4.66)" xlink:href="#radial-gradient"/><linearGradient id="linear-gradient-21" x1="-1918.81" y1="766.08" x2="-1699.79" y2="1070.92" gradientTransform="translate(2962.79 89.84) rotate(4.66)" xlink:href="#radial-gradient"/><linearGradient id="linear-gradient-22" x1="-1965.08" y1="429.57" x2="-1746.06" y2="734.41" gradientTransform="matrix(1, 0.08, -0.08, 1, 2950.36, 332.39)" xlink:href="#radial-gradient"/><linearGradient id="linear-gradient-23" x1="-1966.82" y1="100.72" x2="-1747.79" y2="405.57" gradientTransform="translate(2892.97 561.01) rotate(4.66)" xlink:href="#radial-gradient"/><linearGradient id="linear-gradient-24" x1="-1924.12" y1="-211.01" x2="-1705.09" y2="93.85" gradientTransform="matrix(1, 0.08, -0.08, 1, 2792.6, 769.36)" xlink:href="#radial-gradient"/><linearGradient id="linear-gradient-25" x1="-1837.55" y1="-496.53" x2="-1618.53" y2="-191.68" gradientTransform="matrix(1, 0.08, -0.08, 1, 2651.44, 951.63)" xlink:href="#radial-gradient"/><linearGradient id="linear-gradient-26" x1="-1711.22" y1="-746.08" x2="-1492.19" y2="-441.23" gradientTransform="translate(2475.43 1100.91) rotate(4.66)" xlink:href="#radial-gradient"/><linearGradient id="linear-gradient-27" x1="-893.46" y1="-1261.11" x2="-673.38" y2="-954.8" gradientTransform="translate(1532.98 1302.01) rotate(4.66)" xlink:href="#radial-gradient"/><linearGradient id="linear-gradient-28" x1="-642.08" y1="-1248.41" x2="-422.01" y2="-942.1" gradientTransform="matrix(1, 0.08, -0.08, 1, 1274.3, 1245.35)" xlink:href="#radial-gradient"/><linearGradient id="linear-gradient-29" x1="-386.3" y1="-1177.08" x2="-166.22" y2="-870.76" gradientTransform="matrix(1, 0.08, -0.08, 1, 1021.6, 1147.06)" xlink:href="#radial-gradient"/><linearGradient id="linear-gradient-30" x1="-134.15" y1="-1049.75" x2="85.93" y2="-743.42" gradientTransform="translate(782.77 1010.69) rotate(4.66)" xlink:href="#radial-gradient"/><linearGradient id="linear-gradient-31" x1="107.47" y1="-870.88" x2="327.54" y2="-564.57" gradientTransform="translate(564.22 840.87) rotate(4.66)" xlink:href="#radial-gradient"/><linearGradient id="linear-gradient-32" x1="329.78" y1="-644.47" x2="549.85" y2="-338.16" gradientTransform="matrix(1, 0.08, -0.08, 1, 374.27, 641.45)" xlink:href="#radial-gradient"/><linearGradient id="linear-gradient-33" x1="526.56" y1="-378.14" x2="746.63" y2="-71.83" gradientTransform="translate(217.98 419.2) rotate(4.66)" xlink:href="#radial-gradient"/><linearGradient id="linear-gradient-34" x1="692.39" y1="-79.72" x2="912.47" y2="226.6" gradientTransform="translate(99.63 180.53) rotate(4.66)" xlink:href="#radial-gradient"/><linearGradient id="linear-gradient-35" x1="229.65" y1="126.06" x2="238.21" y2="126.06" xlink:href="#radial-gradient"/><linearGradient id="linear-gradient-36" x1="229.65" y1="133.03" x2="238.21" y2="133.03" xlink:href="#radial-gradient"/><linearGradient id="linear-gradient-37" x1="275.89" y1="149.95" x2="284.45" y2="149.95" xlink:href="#radial-gradient"/><linearGradient id="linear-gradient-38" x1="275.89" y1="144.76" x2="284.45" y2="144.76" xlink:href="#radial-gradient"/><linearGradient id="linear-gradient-39" x1="275.89" y1="159.94" x2="284.45" y2="159.94" xlink:href="#radial-gradient"/><linearGradient id="linear-gradient-40" x1="275.89" y1="165.27" x2="284.45" y2="165.27" xlink:href="#radial-gradient"/><linearGradient id="linear-gradient-41" x1="229.65" y1="140" x2="238.21" y2="140" xlink:href="#radial-gradient"/><linearGradient id="linear-gradient-42" x1="229.65" y1="146.97" x2="238.21" y2="146.97" xlink:href="#radial-gradient"/><linearGradient id="linear-gradient-43" x1="229.65" y1="153.94" x2="238.21" y2="153.94" xlink:href="#radial-gradient"/><linearGradient id="linear-gradient-44" x1="89.06" y1="159.42" x2="97.62" y2="159.42" xlink:href="#radial-gradient"/><linearGradient id="linear-gradient-45" x1="89.06" y1="151.18" x2="97.62" y2="151.18" xlink:href="#radial-gradient"/><linearGradient id="linear-gradient-46" x1="89.06" y1="168.7" x2="97.62" y2="168.7" xlink:href="#radial-gradient"/><radialGradient id="radial-gradient-5" cx="154.09" cy="115.57" r="40.81" gradientUnits="userSpaceOnUse"><stop offset="0" stop-color="#f2ebc6"/><stop offset="1" stop-color="#5e3e1b"/></radialGradient><radialGradient id="radial-gradient-6" cx="154.09" cy="115.57" r="40.81" xlink:href="#radial-gradient-5"/><radialGradient id="radial-gradient-7" cx="832.59" cy="335.04" r="40.81" xlink:href="#radial-gradient-5"/><radialGradient id="radial-gradient-8" cx="832.59" cy="335.04" r="40.81" xlink:href="#radial-gradient-5"/><radialGradient id="radial-gradient-9" cx="832.59" cy="335.04" r="40.81" xlink:href="#radial-gradient-5"/><radialGradient id="radial-gradient-10" cx="832.59" cy="335.04" r="40.81" xlink:href="#radial-gradient-5"/><radialGradient id="radial-gradient-11" cx="157.25" cy="172.44" r="46.75" xlink:href="#radial-gradient-5"/><radialGradient id="radial-gradient-12" cx="157.25" cy="172.44" r="46.75" xlink:href="#radial-gradient-5"/><radialGradient id="radial-gradient-13" cx="835.75" cy="391.91" r="46.74" xlink:href="#radial-gradient-5"/><radialGradient id="radial-gradient-14" cx="835.75" cy="391.91" r="46.75" xlink:href="#radial-gradient-5"/><radialGradient id="radial-gradient-15" cx="835.75" cy="391.91" r="46.75" xlink:href="#radial-gradient-5"/><radialGradient id="radial-gradient-16" cx="835.75" cy="391.91" r="46.75" xlink:href="#radial-gradient-5"/><linearGradient id="linear-gradient-47" x1="-930.86" y1="-404.86" x2="-922.31" y2="-404.86" gradientTransform="translate(1790.7 856.77) scale(1 1.36)" xlink:href="#radial-gradient"/><linearGradient id="linear-gradient-48" x1="-747.22" y1="-388.39" x2="-738.66" y2="-388.39" gradientTransform="translate(1584.58 1017.94) scale(1 1.36)" xlink:href="#radial-gradient"/><radialGradient id="radial-gradient-17" cx="812.84" cy="274.22" r="271.73" xlink:href="#radial-gradient-5"/><radialGradient id="radial-gradient-18" cx="812.84" cy="274.22" r="271.72" xlink:href="#radial-gradient-5"/><radialGradient id="radial-gradient-19" cx="812.84" cy="274.22" r="271.72" xlink:href="#radial-gradient-5"/><radialGradient id="radial-gradient-20" cx="812.84" cy="274.22" r="271.72" xlink:href="#radial-gradient-5"/><radialGradient id="radial-gradient-21" cx="812.84" cy="274.22" r="271.72" xlink:href="#radial-gradient-5"/><radialGradient id="radial-gradient-22" cx="812.84" cy="274.22" r="271.72" xlink:href="#radial-gradient-5"/><radialGradient id="radial-gradient-23" cx="812.84" cy="274.22" r="271.72" xlink:href="#radial-gradient-5"/><radialGradient id="radial-gradient-24" cx="812.84" cy="274.22" r="271.72" xlink:href="#radial-gradient-5"/><radialGradient id="radial-gradient-25" cx="812.84" cy="274.22" r="271.72" xlink:href="#radial-gradient-5"/><radialGradient id="radial-gradient-26" cx="812.84" cy="274.22" r="271.72" xlink:href="#radial-gradient-5"/><radialGradient id="radial-gradient-27" cx="812.84" cy="274.22" r="271.72" xlink:href="#radial-gradient-5"/><radialGradient id="radial-gradient-28" cx="812.84" cy="274.22" r="271.72" xlink:href="#radial-gradient-5"/><radialGradient id="radial-gradient-29" cx="812.84" cy="274.22" r="271.73" xlink:href="#radial-gradient-5"/><radialGradient id="radial-gradient-30" cx="812.84" cy="274.22" r="271.72" xlink:href="#radial-gradient-5"/><radialGradient id="radial-gradient-31" cx="812.84" cy="274.22" r="271.72" xlink:href="#radial-gradient-5"/><radialGradient id="radial-gradient-32" cx="812.84" cy="274.22" r="271.72" xlink:href="#radial-gradient-5"/><radialGradient id="radial-gradient-33" cx="812.84" cy="274.22" r="271.72" xlink:href="#radial-gradient-5"/><radialGradient id="radial-gradient-34" cx="812.84" cy="274.22" r="271.72" xlink:href="#radial-gradient-5"/><radialGradient id="radial-gradient-35" cx="812.84" cy="274.22" r="271.72" xlink:href="#radial-gradient-5"/><radialGradient id="radial-gradient-36" cx="812.84" cy="274.22" r="271.72" xlink:href="#radial-gradient-5"/><radialGradient id="radial-gradient-37" cx="812.84" cy="274.22" r="271.72" xlink:href="#radial-gradient-5"/><radialGradient id="radial-gradient-39" cx="812.84" cy="274.22" r="271.72" xlink:href="#radial-gradient-5"/><radialGradient id="radial-gradient-40" cx="812.84" cy="274.22" r="271.72" xlink:href="#radial-gradient-5"/><radialGradient id="radial-gradient-41" cx="812.84" cy="274.22" r="271.72" xlink:href="#radial-gradient-5"/><radialGradient id="radial-gradient-42" cx="812.84" cy="274.22" r="271.72" xlink:href="#radial-gradient-5"/><radialGradient id="radial-gradient-43" cx="812.84" cy="274.22" r="271.73" xlink:href="#radial-gradient-5"/><radialGradient id="radial-gradient-44" cx="812.84" cy="274.22" r="271.72" xlink:href="#radial-gradient-5"/><radialGradient id="radial-gradient-45" cx="812.84" cy="274.22" r="271.73" xlink:href="#radial-gradient-5"/><radialGradient id="radial-gradient-46" cx="812.84" cy="274.22" r="271.73" xlink:href="#radial-gradient-5"/><radialGradient id="radial-gradient-47" cx="812.84" cy="274.22" r="271.71" xlink:href="#radial-gradient-5"/><radialGradient id="radial-gradient-48" cx="812.84" cy="274.22" r="271.73" xlink:href="#radial-gradient-5"/><radialGradient id="radial-gradient-49" cx="812.84" cy="274.23" r="271.7" xlink:href="#radial-gradient-5"/><radialGradient id="radial-gradient-50" cx="812.84" cy="274.21" r="271.73" xlink:href="#radial-gradient-5"/><radialGradient id="radial-gradient-51" cx="812.84" cy="274.24" r="271.7" xlink:href="#radial-gradient-5"/><radialGradient id="radial-gradient-52" cx="812.84" cy="274.21" r="271.73" xlink:href="#radial-gradient-5"/><radialGradient id="radial-gradient-53" cx="812.84" cy="274.21" r="271.73" xlink:href="#radial-gradient-5"/><radialGradient id="radial-gradient-54" cx="812.84" cy="274.24" r="271.7" xlink:href="#radial-gradient-5"/><radialGradient id="radial-gradient-55" cx="812.84" cy="274.22" r="271.72" xlink:href="#radial-gradient-5"/><radialGradient id="radial-gradient-56" cx="820.74" cy="326.88" r="279.09" xlink:href="#radial-gradient-2"/><linearGradient id="linear-gradient-49" x1="771.84" y1="381.36" x2="910.12" y2="381.36" gradientUnits="userSpaceOnUse"><stop offset="0" stop-color="#1e1611"/><stop offset="1" stop-color="#fff"/></linearGradient><linearGradient id="linear-gradient-50" x1="792.42" y1="310.7" x2="948.03" y2="598.61" gradientUnits="userSpaceOnUse"><stop offset="0.45" stop-color="#f2ebc6"/><stop offset="0.94" stop-color="#cfb169"/></linearGradient><linearGradient id="linear-gradient-51" x1="858.39" y1="379.61" x2="817.91" y2="314.84" gradientUnits="userSpaceOnUse"><stop offset="0.11" stop-color="#c39d49"/><stop offset="0.45" stop-color="#f2ebc6"/><stop offset="0.94" stop-color="#cfb169"/></linearGradient><linearGradient id="linear-gradient-52" x1="793.08" y1="310.35" x2="948.68" y2="598.25" xlink:href="#linear-gradient-51"/><linearGradient id="linear-gradient-53" x1="782.63" y1="292.59" x2="878.67" y2="470.29" xlink:href="#linear-gradient-51"/><linearGradient id="linear-gradient-54" x1="770.65" y1="381.35" x2="911.31" y2="381.35" xlink:href="#linear-gradient-51"/><radialGradient id="radial-gradient-57" cx="839.15" cy="380.12" r="157.33" xlink:href="#radial-gradient"/><radialGradient id="radial-gradient-58" cx="839.15" cy="380.12" r="153.56" xlink:href="#radial-gradient"/><radialGradient id="radial-gradient-60" cx="839.15" cy="380.12" r="152.96" gradientTransform="translate(514.57 -482.03) rotate(45)" gradientUnits="userSpaceOnUse"><stop offset="0.76" stop-color="#fff"/><stop offset="0.85" stop-color="#fefdfd"/><stop offset="0.89" stop-color="#f9f8f6"/><stop offset="0.91" stop-color="#f1eeea"/><stop offset="0.93" stop-color="#e5dfda"/><stop offset="0.94" stop-color="#d5cdc4"/><stop offset="0.96" stop-color="#c2b6a8"/><stop offset="0.97" stop-color="#ab9a88"/><stop offset="0.98" stop-color="#907a62"/><stop offset="0.99" stop-color="#735739"/><stop offset="1" stop-color="#5e3e1b"/></radialGradient></defs><title>bitcoin_img</title><g class="cls-1"><g id="Layer_1" data-name="Layer 1"><circle class="cls-2" cx="839.15" cy="380.12" r="160.65" transform="translate(-701.51 485.23) rotate(-45)"/><path class="cls-3" d="M996.46,380.13c0,5.29-.27,10.52-.78,15.69,0,.52-.11,1.06-.17,1.58-.1,1-.22,2-.35,3-.08.6-.16,1.2-.25,1.8q-1,7.53-2.81,14.81c0,.15-.07.3-.11.45-.26,1.1-.54,2.21-.84,3.31-.08.29-.14.57-.24.84-.25.95-.52,1.9-.8,2.84-.15.53-.3,1-.48,1.57a157.34,157.34,0,1,1,6.1-61.12c0,.47.09.95.13,1.42C996.25,370.87,996.46,375.49,996.46,380.13Z" transform="translate(-678.5 -219.47)"/><circle class="cls-4" cx="160.65" cy="160.65" r="155.53"/><circle class="cls-5" cx="839.15" cy="380.12" r="152.96" transform="translate(-701.51 485.23) rotate(-45)"/><circle class="cls-6" cx="839.15" cy="380.12" r="140.39" transform="translate(-701.51 485.23) rotate(-45)"/><rect class="cls-7" x="818.7" y="241.99" width="15.01" height="8.69" rx="2.08" transform="translate(-695.79 -151.51) rotate(-4.66)"/><rect class="cls-8" x="795.66" y="246.27" width="15.01" height="8.69" rx="2.08" transform="translate(-715.78 -8.03) rotate(-14.66)"/><rect class="cls-9" x="773.72" y="254.49" width="15.01" height="8.69" rx="2.08" transform="translate(-715.24 130.11) rotate(-24.66)"/><rect class="cls-10" x="753.54" y="266.39" width="15.01" height="8.69" rx="2.08" transform="translate(-697.41 261.4) rotate(-34.66)"/><rect class="cls-11" x="735.73" y="281.61" width="15.01" height="8.69" rx="2.08" transform="translate(-664.92 385.51) rotate(-44.66)"/><rect class="cls-12" x="720.84" y="299.7" width="15.01" height="8.69" rx="2.08" transform="translate(-619.46 502.85) rotate(-54.66)"/><rect class="cls-13" x="709.31" y="320.1" width="15.01" height="8.69" rx="1.98" transform="translate(-561.69 613.97) rotate(-64.66)"/><rect class="cls-14" x="701.5" y="342.19" width="15.01" height="8.69" rx="1.98" transform="translate(-491.23 719.13) rotate(-74.66)"/><rect class="cls-15" x="697.64" y="365.3" width="15.01" height="8.69" rx="1.98" transform="translate(-407 817.86) rotate(-84.66)"/><rect class="cls-16" x="697.86" y="388.73" width="15.01" height="8.69" rx="1.98" transform="translate(-307.58 908.57) rotate(-94.66)"/><rect class="cls-17" x="702.14" y="411.76" width="15.01" height="8.69" rx="1.98" transform="translate(-191.8 988.48) rotate(-104.66)"/><rect class="cls-18" x="710.35" y="433.7" width="15.01" height="8.69" rx="1.98" transform="translate(-59.21 1053.73) rotate(-114.66)"/><rect class="cls-19" x="722.25" y="453.88" width="15.01" height="8.69" rx="1.98" transform="translate(89.38 1099.61) rotate(-124.66)"/><rect class="cls-20" x="737.48" y="471.69" width="15.01" height="8.69" rx="1.98" transform="translate(251.56 1121.06) rotate(-134.66)"/><rect class="cls-21" x="755.56" y="486.59" width="15.01" height="8.69" rx="1.98" transform="translate(423.08 1113.3) rotate(-144.66)"/><rect class="cls-22" x="775.96" y="498.12" width="15.01" height="8.69" rx="1.98" transform="translate(598.02 1072.4) rotate(-154.66)"/><rect class="cls-23" x="798.05" y="505.93" width="15.01" height="8.69" rx="1.98" transform="translate(768.94 995.98) rotate(-164.66)"/><rect class="cls-24" x="821.16" y="509.78" width="15.01" height="8.69" rx="1.98" transform="translate(927.4 883.65) rotate(-174.66)"/><rect class="cls-25" x="844.59" y="509.57" width="15.01" height="8.69" rx="1.93" transform="translate(1064.63 737.41) rotate(175.34)"/><rect class="cls-26" x="867.62" y="505.29" width="15.01" height="8.69" rx="1.93" transform="translate(1172.25 561.7) rotate(165.34)"/><rect class="cls-27" x="889.57" y="497.07" width="15.01" height="8.69" rx="1.93" transform="translate(1243.04 363.31) rotate(155.34)"/><rect class="cls-28" x="909.75" y="485.17" width="15.01" height="8.69" rx="1.93" transform="translate(1271.62 151.01) rotate(145.34)"/><rect class="cls-29" x="927.56" y="469.95" width="15.01" height="8.69" rx="1.93" transform="translate(1255.03 -65.1) rotate(135.34)"/><rect class="cls-30" x="942.45" y="451.86" width="15.01" height="8.69" rx="1.93" transform="translate(1193.06 -274.33) rotate(125.34)"/><rect class="cls-31" x="953.98" y="431.46" width="15.01" height="8.69" rx="1.93" transform="translate(1088.34 -466.15) rotate(115.34)"/><rect class="cls-32" x="961.15" y="339.8" width="15.01" height="8.69" rx="2.08" transform="translate(377.93 -899.55) rotate(75.34)"/><rect class="cls-33" x="952.93" y="317.86" width="15.01" height="8.69" rx="2.08" transform="translate(174 -904.55) rotate(65.34)"/><rect class="cls-34" x="941.03" y="297.68" width="15.01" height="8.69" rx="2.08" transform="translate(-21 -869.42) rotate(55.34)"/><rect class="cls-35" x="925.81" y="279.87" width="15.01" height="8.69" rx="2.08" transform="translate(-199.07 -798.88) rotate(45.34)"/><rect class="cls-36" x="907.72" y="264.97" width="15.01" height="8.69" rx="2.08" transform="translate(-354.1 -699.22) rotate(35.34)"/><rect class="cls-37" x="887.33" y="253.44" width="15.01" height="8.69" rx="2.08" transform="translate(-482.09 -577.63) rotate(25.34)"/><rect class="cls-38" x="865.24" y="245.63" width="15.01" height="8.69" rx="2.08" transform="matrix(0.96, 0.26, -0.26, 0.96, -581.28, -441.43)"/><rect class="cls-39" x="842.13" y="241.78" width="15.01" height="8.69" rx="2.08" transform="translate(-651.91 -297.46) rotate(5.34)"/><rect class="cls-40" x="229.65" y="123.75" width="8.56" height="4.61" rx="0.86"/><rect class="cls-41" x="229.65" y="130.72" width="8.56" height="4.61" rx="0.86"/><rect class="cls-42" x="275.89" y="147.64" width="8.56" height="4.61" rx="0.86"/><rect class="cls-43" x="275.89" y="142.46" width="8.56" height="4.61" rx="0.86"/><rect class="cls-44" x="275.89" y="157.63" width="8.56" height="4.61" rx="0.86"/><rect class="cls-45" x="275.89" y="162.97" width="8.56" height="4.61" rx="0.86"/><rect class="cls-46" x="229.65" y="137.7" width="8.56" height="4.61" rx="0.86"/><rect class="cls-47" x="229.65" y="144.67" width="8.56" height="4.61" rx="0.86"/><rect class="cls-48" x="229.65" y="151.64" width="8.56" height="4.61" rx="0.86"/><rect class="cls-49" x="89.06" y="157.12" width="8.56" height="4.61" rx="0.86"/><rect class="cls-50" x="89.06" y="148.88" width="8.56" height="4.61" rx="0.86"/><rect class="cls-51" x="89.06" y="166.39" width="8.56" height="4.61" rx="0.86"/><rect class="cls-52" x="164.47" y="118.48" width="6.29" height="8.56" rx="1.54"/><rect class="cls-53" x="153.96" y="118.48" width="6.29" height="8.56" rx="1.54"/><path class="cls-54" d="M824.57,349.53h18.22a.79.79,0,1,0,0-1.58H824.57a.79.79,0,1,0,0,1.58Z" transform="translate(-678.5 -219.47)"/><path class="cls-55" d="M825.07,360.39a.79.79,0,0,0,0,1.58h8.61a.79.79,0,1,0,0-1.58Z" transform="translate(-678.5 -219.47)"/><path class="cls-56" d="M842.2,357.67a.79.79,0,0,0-.79-.78H825.07a.79.79,0,1,0,0,1.57h16.34A.79.79,0,0,0,842.2,357.67Z" transform="translate(-678.5 -219.47)"/><path class="cls-57" d="M857.69,344.11h-1.37a11.16,11.16,0,0,0-4.57-6.47,12.2,12.2,0,0,0-6.82-1.93H825.21a.79.79,0,0,0,0,1.58h19.72a10.64,10.64,0,0,1,5.94,1.66,9.41,9.41,0,0,1,3.82,5.16h-.21a1.54,1.54,0,0,0-1.54,1.54v5.26H825.56a.79.79,0,1,0,0,1.58h28.23a1.48,1.48,0,0,0,.69.18h.39c-1.49,7.14-7.12,10.39-17.76,10.39H824a.79.79,0,1,0,0,1.58h13.16c11.6,0,17.86-3.84,19.38-12h1.2a1.54,1.54,0,0,0,1.54-1.54v-5.48A1.54,1.54,0,0,0,857.69,344.11Z" transform="translate(-678.5 -219.47)"/><rect class="cls-58" x="164.73" y="179.33" width="6.29" height="8.56" rx="1.54"/><rect class="cls-59" x="155.39" y="179.33" width="6.29" height="8.56" rx="1.54"/><path class="cls-60" d="M825.21,409.59a.79.79,0,0,0,.79.79h18.22a.79.79,0,0,0,0-1.58H826A.79.79,0,0,0,825.21,409.59Z" transform="translate(-678.5 -219.47)"/><path class="cls-61" d="M826.5,421.24a.79.79,0,1,0,0,1.58h8.61a.79.79,0,0,0,0-1.58Z" transform="translate(-678.5 -219.47)"/><path class="cls-62" d="M843.63,418.53a.79.79,0,0,0-.79-.79H826.5a.79.79,0,1,0,0,1.58h16.34A.8.8,0,0,0,843.63,418.53Z" transform="translate(-678.5 -219.47)"/><path class="cls-63" d="M867.67,400.34a1.54,1.54,0,0,0-1.54-1.54h-.45a13.34,13.34,0,0,0-4.81-4.78,17.54,17.54,0,0,0-8.92-2.23H825.64a.79.79,0,1,0,0,1.58H852a16.11,16.11,0,0,1,8.13,2,12,12,0,0,1,3.76,3.42h-.92a1.54,1.54,0,0,0-1.54,1.54v5.48a1.54,1.54,0,0,0,1.54,1.54H866c-.27,9-5,14.08-15.15,15.83,5-2.5,7.44-7.09,7.44-13.95a16.36,16.36,0,0,0-.51-4.13v-4.77a1.54,1.54,0,0,0-1.54-1.54H853.6c-.14-.1-.28-.22-.42-.31a12.23,12.23,0,0,0-6.82-1.93H826.65a.79.79,0,1,0,0,1.58h19.71a10.87,10.87,0,0,1,5.42,1.37,1.52,1.52,0,0,0-.27.83v5.48a1.54,1.54,0,0,0,1.54,1.54h3.21a1.28,1.28,0,0,0,.34-.07,17.41,17.41,0,0,1,.13,1.95,22.62,22.62,0,0,1-.17,2.67.69.69,0,0,0-.42-.15H827a.79.79,0,1,0,0,1.58h29.15a.78.78,0,0,0,.21,0c-1.42,7.29-7.06,10.61-17.81,10.61H824a.79.79,0,0,0,0,1.58h17.57c17.82,0,26.11-6,26.11-18.94,0-.15,0-.27,0-.42a1.55,1.55,0,0,0,.06-.31Z" transform="translate(-678.5 -219.47)"/><rect class="cls-64" x="859.84" y="301.15" width="8.56" height="6.29" rx="1.01" transform="translate(489.91 -779.3) rotate(90)"/><rect class="cls-65" x="837.36" y="485.94" width="8.56" height="4.01" rx="0.8" transform="translate(651.08 -573.17) rotate(90)"/><path class="cls-66" d="M995.9,365.05l-.17-.13-8.51-6.4a.92.92,0,0,0-.48-.16h-22.9a127.29,127.29,0,0,0-250.8.07.74.74,0,0,0,0,.33,127.55,127.55,0,0,0,12,79.08c.08.17.17.35.27.52.65,1.26,1.31,2.51,2,3.76.31.52.62,1,.92,1.58.51.87,1,1.72,1.53,2.58s.92,1.48,1.39,2.22.79,1.25,1.2,1.87c.59.87,1.17,1.7,1.76,2.56.2.3.39.6.61.9,0,0,0,0,0,0a127.36,127.36,0,0,0,103.27,53.5.62.62,0,0,0,.38.13c54,0,101.79-34,119.68-83.76h28.35l2.94,2.2a.57.57,0,0,0,.22.11.71.71,0,0,0,.26,0,.79.79,0,0,0,.47-1.43l-.25-.19-2.89-2.16a.77.77,0,0,0-.48-.16H958.65c.35-1,.71-2,1-3.06h26.79l3.45,2.57a.74.74,0,0,0,.47.16.8.8,0,0,0,.52-.19,1.31,1.31,0,0,1,.11-.12.78.78,0,0,0,.13-.72.77.77,0,0,0-.29-.39l-3.64-2.73a.77.77,0,0,0-.48-.16H960.15c.3-1,.62-2,.89-3.07h25.43l4.36,3.27a.8.8,0,0,0,1.11-.15s0-.05,0-.08a.74.74,0,0,0,.11-.45.82.82,0,0,0-.32-.58L987.22,413a.92.92,0,0,0-.48-.16H960.45l-.06,0a.42.42,0,0,0-.12,0,1,1,0,0,0-.18,0L960,413a.8.8,0,0,0-.13.13l-.08.09-.08.16s0,0,0,.05c-14.63,54.44-64.49,92.46-121.26,92.46a1.12,1.12,0,0,0-.37.09,126,126,0,0,1-102.84-53.86l-1.72-2.52c-.41-.61-.8-1.23-1.2-1.86s-.93-1.45-1.37-2.18-1-1.71-1.5-2.56c-.32-.52-.62-1-.92-1.56-.68-1.22-1.33-2.45-2-3.7-.1-.17-.19-.36-.29-.54a124.47,124.47,0,0,1-9.32-24.28s0-.06-.05-.09a126.85,126.85,0,0,1-2.52-53.73.72.72,0,0,0,.22-.42,125.7,125.7,0,0,1,247.63-.34h-3.3a122.45,122.45,0,0,0-241,.07.86.86,0,0,0,.11.55,121.05,121.05,0,0,0,1.16,48.21.66.66,0,0,0,0,.37,122.33,122.33,0,0,0,118.86,95,.78.78,0,0,0,.38.13,122.45,122.45,0,0,0,119.17-94.35l2,1.36a.83.83,0,0,0,.43.13h26.39l4.69,3.52a.81.81,0,0,0,.48.16.79.79,0,0,0,.63-.32.78.78,0,0,0-.16-1.1l-4.89-3.68a.84.84,0,0,0-.48-.16H960.33l-21.9-14.58c.13-.92.22-1.83.34-2.75H940L959.62,405a.8.8,0,0,0,.46.16h26.39l5.53,4.14a.75.75,0,0,0,.48.16.8.8,0,0,0,.63-.32.79.79,0,0,0-.16-1.1l-5.73-4.3a.77.77,0,0,0-.48-.16h-26.4l-17.69-12.7h4.54l12.41,9.48a1,1,0,0,0,.48.16h26.39l6,4.48a.79.79,0,0,0,1.11-.16.79.79,0,0,0-.16-1.1l-6.19-4.65a.76.76,0,0,0-.48-.15h-26.4l-10.56-8.06h3.33l6.51,4.83a.7.7,0,0,0,.46.16h26.39l8.44,6.34c.09-.6.17-1.2.25-1.8l-7.94-6a.92.92,0,0,0-.48-.16h-26.4l-4.59-3.41h30.72l8.49,6.35a.74.74,0,0,0,.47.16h.08c.06-.52.13-1.06.17-1.58l-8.46-6.35a.77.77,0,0,0-.48-.16h-48a.7.7,0,0,0-.53-.28h-.06l-2.32-2.71h0l-6-7.05-.13-.09V379a91.28,91.28,0,0,0-74.75-88.5.81.81,0,0,0-.92.63.8.8,0,0,0,.64.92A89.68,89.68,0,0,1,928,379v1.19c0,42.78-30.14,79.74-71.65,87.89a.79.79,0,0,0,.14,1.57.44.44,0,0,0,.16,0c41.84-8.21,72.3-45.16,72.9-88.15l2.47,2.86s0,.05,0,.08a93.39,93.39,0,0,1-75.23,87.63.78.78,0,0,0-.61.93.76.76,0,0,0,.77.63h.14a94.93,94.93,0,0,0,76.4-87.55l.87,1a96.12,96.12,0,0,1-77.57,87.53.79.79,0,0,0-.61.93.77.77,0,0,0,.77.64h.14a97.7,97.7,0,0,0,78.71-87.43l1.42,1.66a99.64,99.64,0,0,1-80.05,87.33.81.81,0,0,0-.63.93.8.8,0,0,0,.77.65l.15,0a101.27,101.27,0,0,0,80.72-84l3.52,2.35c-7.26,45.22-44.2,80.59-90.09,86.35v-3.52a.79.79,0,1,0-1.58,0v4.34a.8.8,0,0,0,.54.75l.17,0a.52.52,0,0,0,.24.05h.09c46.69-5.53,84.38-41.24,92.07-87l2.62,1.74c-8.54,48.32-49,84.62-98.49,88.59v-8.47a.8.8,0,0,0-.79-.79.79.79,0,0,0-.79.79v9.32a.77.77,0,0,0,.25.57.76.76,0,0,0,.54.22h0c50.4-3.65,91.67-40.31,100.66-89.29l2.43,1.63c-10.38,50.95-55.37,88.91-107.36,90.65v-13.1a.79.79,0,1,0-1.58,0v13.9a.75.75,0,0,0,.24.57.78.78,0,0,0,.55.22h0A115.05,115.05,0,0,0,951,403.94l2.16,1.45c-11.53,53.38-59.52,92.08-114.42,92.24a.66.66,0,0,0-.5-.23A117.39,117.39,0,0,1,723.86,354.75a.91.91,0,0,0,.25-.4c12.4-53.05,60.49-91.56,114.33-91.56,52.9,0,100.21,37.19,113.64,88.81l-3.16-3.68,0-.08A116,116,0,0,0,908.51,289a113.93,113.93,0,0,0-68.78-23.77.64.64,0,0,0-.55.22.73.73,0,0,0-.24.57v15.08a.79.79,0,0,0,1.58,0V266.76a112.88,112.88,0,0,1,106.9,81.67l.16.31a.46.46,0,0,0,.11.16l9.23,10.77a.74.74,0,0,0,.6.27h29l8.49,6.37a.88.88,0,0,0,.47.16.86.86,0,0,0,.43-.13.72.72,0,0,0,.2-.19A.77.77,0,0,0,995.9,365.05Zm-41.57-10.83a.88.88,0,0,0,0-.23c-12.59-53.76-61.33-92.78-115.89-92.78-36.31,0-70,17.3-92.23,44.71a.66.66,0,0,0-.49.25,117.82,117.82,0,0,0-21.47,41.48l-.75,2.7a.21.21,0,0,1,0,.11c-.3,1.17-.61,2.34-.9,3.53a.91.91,0,0,0,0,.33,120,120,0,0,0-.33,50.08.6.6,0,0,0-.11.52c11.5,54.45,60.22,94,115.94,94.18a.62.62,0,0,0,.38.13c55.57,0,104.23-39,116.17-92.91l1.61,1.08a120.18,120.18,0,0,1-117.61,93.66.67.67,0,0,0-.33-.09,120.65,120.65,0,0,1-118.8-142.2s0,0,0-.06q1-5.37,2.39-10.54c0-.07,0-.15.06-.25q.66-2.37,1.4-4.69c.19-.6.4-1.19.6-1.77.35-1.06.72-2.1,1.09-3.14a121,121,0,0,1,113.24-78.85.58.58,0,0,0,.33-.09,120.65,120.65,0,0,1,118.53,98.13Z" transform="translate(-678.5 -219.47)"/><path class="cls-67" d="M987.21,363.6a.78.78,0,0,0-.47-.16h-32L945.8,353l-.16-.59A110.26,110.26,0,0,0,845,269.7a.72.72,0,0,0-.59.21.79.79,0,0,0-.25.58v10.57a.79.79,0,1,0,1.58,0v-9.73a108.7,108.7,0,0,1,98.37,81.51l.19.77a.73.73,0,0,0,.17.31l9.28,10.83a.8.8,0,0,0,.6.27h32.12l8.48,6.36a.74.74,0,0,0,.47.16.77.77,0,0,0,.63-.32.78.78,0,0,0-.16-1.1Z" transform="translate(-678.5 -219.47)"/><path class="cls-68" d="M940.86,358.51l.25.69a.79.79,0,0,0,.14.23l9,10.7a.78.78,0,0,0,.6.28h35.68l8.48,6.36a.74.74,0,0,0,.47.16.77.77,0,0,0,.63-.32.78.78,0,0,0-.16-1.1L987.21,369a.78.78,0,0,0-.47-.16H951.17l-8.63-10.31-.17-.44a106.31,106.31,0,0,0-93.88-83.63.84.84,0,0,0-.61.2.78.78,0,0,0-.25.59v5.82a.79.79,0,0,0,.79.79.76.76,0,0,0,.64-.37,99.53,99.53,0,0,1,87.17,81.3.66.66,0,0,0,.06.2l.33.69a.86.86,0,0,0,.1.16l8.73,10.64a.81.81,0,0,0,.61.29h40.42l8.48,6.35a.74.74,0,0,0,.47.16.79.79,0,0,0,.47-1.42l-8.69-6.52a.78.78,0,0,0-.47-.15h-40.3L938,362.9l-.25-.5a101.09,101.09,0,0,0-88.55-82.49v-3.8C893.89,280.69,931.5,314.41,940.86,358.51Z" transform="translate(-678.5 -219.47)"/><path class="cls-69" d="M987.21,378.76a.78.78,0,0,0-.47-.15H944.25l-8.73-10.19-.09-.48c-5.26-42-38-76.49-79.67-83.94a.79.79,0,0,0-.27,1.56c41,7.33,73.19,41.29,78.38,82.63l.14.73a.85.85,0,0,0,.18.37l9.1,10.62a.78.78,0,0,0,.6.28h42.59l8.48,6.36a.79.79,0,0,0,.94-1.27Z" transform="translate(-678.5 -219.47)"/><path class="cls-70" d="M987.21,384a.72.72,0,0,0-.47-.16H942.28l-8.62-10.3-.24-.56a95.15,95.15,0,0,0-77.65-86.43.79.79,0,0,0-.29,1.55,93.57,93.57,0,0,1,76.37,85.13.9.9,0,0,0,.07.27l.34.78a.76.76,0,0,0,.12.19l8.93,10.67a.78.78,0,0,0,.61.28h44.56l8.48,6.36a.81.81,0,0,0,.47.16.77.77,0,0,0,.63-.32.8.8,0,0,0-.16-1.11Z" transform="translate(-678.5 -219.47)"/><path class="cls-71" d="M819.14,489.15h.12a.69.69,0,0,0,.68-.68v-9a.68.68,0,0,0-1.36,0v8.22a109.19,109.19,0,0,1-59-31.77.66.66,0,0,0-.19-.47A108.91,108.91,0,0,1,733,351.93c.08-.32.17-.64.26-1,.46-1.62.94-3.24,1.46-4.84a1,1,0,0,0,0-.16q.87-2.6,1.86-5.14c.07-.2.15-.39.23-.58q.92-2.34,2-4.64c.06-.14.12-.28.19-.42.7-1.55,1.44-3.07,2.21-4.58l.65-1.24c.58-1.09,1.18-2.18,1.8-3.25.27-.47.53-.95.8-1.41.72-1.22,1.48-2.41,2.24-3.6.48-.74,1-1.47,1.46-2.19.36-.53.73-1.06,1.11-1.58,1.1-1.56,2.24-3.1,3.43-4.6l.45-.57c.72-.91,1.45-1.79,2.2-2.67.15-.17.29-.34.44-.5q2.14-2.49,4.43-4.84l.48-.49c.8-.81,1.62-1.62,2.45-2.4.22-.22.46-.43.68-.64a108.94,108.94,0,0,1,52.53-27.31v8.13a.79.79,0,1,0,1.57,0v-9.1a.77.77,0,0,0-.94-.77,111.14,111.14,0,0,0-85.78,80.87.79.79,0,0,0,.11.62,110,110,0,0,0-3.43,27.15,111.76,111.76,0,0,0,1.68,19.15.69.69,0,0,0-.08.45A110.49,110.49,0,0,0,819.14,489.15Z" transform="translate(-678.5 -219.47)"/><path class="cls-72" d="M815.34,483.83h.15a.66.66,0,0,0,.42-.15.67.67,0,0,0,.26-.53v-4.37a.68.68,0,1,0-1.36,0v3.52A104,104,0,0,1,776.93,465a.52.52,0,0,0-.1-.11,104.65,104.65,0,0,1-40.92-106.16.68.68,0,0,0,.15-.32,105.1,105.1,0,0,1,76.46-79.6V282a.79.79,0,0,0,1.58,0v-4.16a.8.8,0,0,0-.3-.63.82.82,0,0,0-.68-.14,106.67,106.67,0,0,0-78.6,81.06.79.79,0,0,0,0,.43,106.43,106.43,0,0,0-2.24,21.71,105.28,105.28,0,0,0,1.33,16.59.61.61,0,0,0,0,.19C740.29,439.6,773.12,474.49,815.34,483.83Z" transform="translate(-678.5 -219.47)"/><path class="cls-73" d="M808.1,471.62a96.24,96.24,0,0,1-62-64l7.06-5.83h39.34a.68.68,0,1,0,0-1.36H752.94a.66.66,0,0,0-.43.15l-7.59,6.28a.66.66,0,0,0-.22.71,97.59,97.59,0,0,0,63,65.33l.21,0a.68.68,0,0,0,.65-.47A.67.67,0,0,0,808.1,471.62Z" transform="translate(-678.5 -219.47)"/><path class="cls-74" d="M805.26,289.93a.79.79,0,0,0-.54-1.48A97.34,97.34,0,0,0,741.46,368l-.76,12.18a.78.78,0,0,0,.2.57l7.14,8.07a.83.83,0,0,0,.6.26h43a.79.79,0,0,0,0-1.58H749l-6.69-7.55.73-11.8A95.74,95.74,0,0,1,805.26,289.93Z" transform="translate(-678.5 -219.47)"/><path class="cls-75" d="M808.87,470a.69.69,0,0,0-.42-.87A93.06,93.06,0,0,1,776.88,451a.66.66,0,0,0-1,.07.67.67,0,0,0,.06,1,94.44,94.44,0,0,0,32,18.4.6.6,0,0,0,.22,0A.68.68,0,0,0,808.87,470Z" transform="translate(-678.5 -219.47)"/><path class="cls-76" d="M758.72,406.24h33.12a.68.68,0,0,0,0-1.36H758.47a.72.72,0,0,0-.44.16l-8.68,7.3a.69.69,0,0,0-.2.76A94.47,94.47,0,0,0,770.65,447a.69.69,0,0,0,.48.2.68.68,0,0,0,.49-1.15,93.23,93.23,0,0,1-21-32.94Z" transform="translate(-678.5 -219.47)"/><path class="cls-77" d="M791.74,382.56H753.4l-8.34-9.65a93.92,93.92,0,0,1,60.21-80.31.79.79,0,0,0-.56-1.48,95.53,95.53,0,0,0-61.25,82,.79.79,0,0,0,.19.57l8.79,10.17a.78.78,0,0,0,.6.28h38.7a.79.79,0,0,0,0-1.58Z" transform="translate(-678.5 -219.47)"/><path class="cls-78" d="M809.32,465.8a.78.78,0,0,0-.48-1A89.45,89.45,0,0,1,783.51,451a.78.78,0,0,0-1.11.14.77.77,0,0,0,.14,1.1,90.73,90.73,0,0,0,25.78,14.06.75.75,0,0,0,.26,0A.78.78,0,0,0,809.32,465.8Z" transform="translate(-678.5 -219.47)"/><path class="cls-79" d="M791.84,408.62H762.52a.83.83,0,0,0-.59.26l-6.51,7.21a.79.79,0,0,0-.13.88l5.18,10.51a92,92,0,0,0,11.68,15.32.83.83,0,0,0,.58.25.76.76,0,0,0,.54-.22.79.79,0,0,0,0-1.12,89.4,89.4,0,0,1-11.44-15l-4.91-10,5.92-6.55h29a.79.79,0,0,0,0-1.58Z" transform="translate(-678.5 -219.47)"/><path class="cls-80" d="M793.42,379a.79.79,0,0,0-.79-.79H756.47l-7-8.43a89,89,0,0,1,20-46.82.79.79,0,1,0-1.21-1,90.69,90.69,0,0,0-20.45,48,.79.79,0,0,0,.18.59l7.46,9a.81.81,0,0,0,.61.29h36.53A.79.79,0,0,0,793.42,379Z" transform="translate(-678.5 -219.47)"/><path class="cls-81" d="M805.72,296a.78.78,0,0,0-1-.44,90.65,90.65,0,0,0-29.22,18.78.8.8,0,0,0,0,1.12.78.78,0,0,0,.57.24.79.79,0,0,0,.55-.22A89.37,89.37,0,0,1,805.28,297,.77.77,0,0,0,805.72,296Z" transform="translate(-678.5 -219.47)"/><path class="cls-82" d="M730.05,418.55c.29.81.57,1.62.87,2.42l.48,1.23c.51,1.31,1.05,2.61,1.6,3.89l.07.15a114.61,114.61,0,0,0,90.79,68H824a.66.66,0,0,0,.44-.17.67.67,0,0,0,.22-.44s0,0,0-.06,0-.05,0-.07V478.72a.68.68,0,1,0-1.35,0v14a113.51,113.51,0,0,1-88.93-66.95l-.12-.28c-.53-1.22-1-2.45-1.52-3.69-.18-.47-.37-.92-.54-1.39-.28-.73-.53-1.47-.8-2.21A114.47,114.47,0,0,1,727,402.5a.54.54,0,0,0,0-.11,113.44,113.44,0,0,1,2.2-53.52s.09-.07.11-.12l.22-.46a113.77,113.77,0,0,1,90.7-80.09v13.65a.79.79,0,1,0,1.58,0V267.27a.78.78,0,0,0-.27-.59.79.79,0,0,0-.64-.19,115.26,115.26,0,0,0-92.83,81.22l-.17.32a.84.84,0,0,0,0,.6,114.64,114.64,0,0,0,2.2,69.92Z" transform="translate(-678.5 -219.47)"/><path class="cls-83" d="M737.67,384.52a.67.67,0,0,0,.2.44l8.91,8.62a.63.63,0,0,0,.45.18H792a.64.64,0,1,0,0-1.28H747.49L739,384.21c-.05-1.32-.07-2.65-.07-4a99.19,99.19,0,0,1,1.47-17,.8.8,0,0,0,.31-.49,99.42,99.42,0,0,1,64.6-76.19.79.79,0,1,0-.53-1.49,101,101,0,0,0-65.62,77.4.74.74,0,0,0,0,.33,100.23,100.23,0,0,0-1.54,17.39C737.58,381.66,737.62,383.09,737.67,384.52Z" transform="translate(-678.5 -219.47)"/><path class="cls-84" d="M788.44,467.71l1,.57,1,.51a99.31,99.31,0,0,0,16.81,7.27l.21,0h0l.28.09a.63.63,0,0,0,.19,0,.65.65,0,0,0,.2-1.26l-.34-.11a.33.33,0,0,0-.13-.07,99.86,99.86,0,0,1-66-71.95l6.81-5.28h43.92a.64.64,0,0,0,.64-.64.65.65,0,0,0-.64-.65H748.2a.62.62,0,0,0-.39.14l-7.45,5.76a.64.64,0,0,0-.23.66A101.07,101.07,0,0,0,788.44,467.71Z" transform="translate(-678.5 -219.47)"/><path class="cls-85" d="M791.84,412.87h-22.9a.83.83,0,0,0-.58.24l-5.72,6a.8.8,0,0,0-.15.87c.88,2,9.4,15.85,10.79,15.85h0A.79.79,0,0,0,774,435a.82.82,0,0,0-.33-.59,114.06,114.06,0,0,1-9.55-14.59l5.12-5.38h22.57a.79.79,0,0,0,0-1.58Z" transform="translate(-678.5 -219.47)"/><path class="cls-86" d="M791.84,418.79a.79.79,0,0,0,0-1.58H777.37a.74.74,0,0,0-.53.21l-6.56,6a.81.81,0,0,0-.12,1c1.69,2.45,3.59,5.25,3.82,5.7a.8.8,0,0,0,.74.52l.16,0a.79.79,0,0,0,.62-.93c0-.18-.09-.43-3.65-5.6l5.82-5.3Z" transform="translate(-678.5 -219.47)"/><path class="cls-72" d="M791.84,374H761.91l-6.36-8A83.28,83.28,0,0,1,769,332.87a.78.78,0,0,0-.16-1.1.79.79,0,0,0-1.11.16,85.06,85.06,0,0,0-13.78,34.12.8.8,0,0,0,.17.61l6.81,8.59a.79.79,0,0,0,.62.3h30.31a.79.79,0,0,0,0-1.58Z" transform="translate(-678.5 -219.47)"/><path class="cls-87" d="M773.69,331.73a.78.78,0,0,0-1.08.26c-.11.17-11,18-14.51,31.91a.8.8,0,0,0,.16.7l5.63,6.66a.78.78,0,0,0,.6.28h27.35a.79.79,0,0,0,0-1.58h-27l-5.13-6.06c3.6-13.65,14.12-30.91,14.22-31.09A.78.78,0,0,0,773.69,331.73Z" transform="translate(-678.5 -219.47)"/><path class="cls-88" d="M776.92,332.93c-.49.68-12.12,17-13.41,27.71a.79.79,0,0,0,.23.65l6.87,6.88a.79.79,0,0,0,.56.23h20.67a.79.79,0,0,0,0-1.58H771.49l-6.36-6.37c1.48-10.35,13-26.44,13.08-26.6a.79.79,0,1,0-1.29-.92Z" transform="translate(-678.5 -219.47)"/><path class="cls-89" d="M769.32,356l6.51,7.7a.78.78,0,0,0,.6.28H792.3a.79.79,0,0,0,0-1.58H776.8l-6-7.1c1.65-5.85,10.22-19.4,11.33-20.58a.81.81,0,0,0,.33-.81.79.79,0,0,0-.93-.62c-1.46.3-11.12,16.88-12.36,22A.78.78,0,0,0,769.32,356Z" transform="translate(-678.5 -219.47)"/><path class="cls-90" d="M823.63,284.71H836.5a.64.64,0,0,0,.64-.64.65.65,0,0,0-.64-.65H823.63a.65.65,0,0,0-.64.65A.64.64,0,0,0,823.63,284.71Z" transform="translate(-678.5 -219.47)"/><path class="cls-91" d="M823.63,289H836.5a.65.65,0,0,0,0-1.29H823.63a.65.65,0,0,0,0,1.29Z" transform="translate(-678.5 -219.47)"/><path class="cls-92" d="M823.63,293.3H836.5a.64.64,0,0,0,.64-.64.65.65,0,0,0-.64-.65H823.63a.65.65,0,0,0-.64.65A.64.64,0,0,0,823.63,293.3Z" transform="translate(-678.5 -219.47)"/><path class="cls-93" d="M823.63,297.6H836.5a.65.65,0,0,0,0-1.29H823.63a.65.65,0,0,0,0,1.29Z" transform="translate(-678.5 -219.47)"/><path class="cls-94" d="M823.63,301.89H836.5a.64.64,0,0,0,.64-.64.65.65,0,0,0-.64-.65H823.63a.65.65,0,0,0-.64.65A.64.64,0,0,0,823.63,301.89Z" transform="translate(-678.5 -219.47)"/><path class="cls-95" d="M823.63,306.19H836.5a.65.65,0,0,0,0-1.29H823.63a.65.65,0,0,0,0,1.29Z" transform="translate(-678.5 -219.47)"/><path class="cls-96" d="M823.63,310.48H836.5a.64.64,0,0,0,.64-.64.65.65,0,0,0-.64-.65H823.63a.65.65,0,0,0-.64.65A.64.64,0,0,0,823.63,310.48Z" transform="translate(-678.5 -219.47)"/><path class="cls-97" d="M838.44,451.9H823.63a.65.65,0,0,0,0,1.29h14.81a.65.65,0,1,0,0-1.29Z" transform="translate(-678.5 -219.47)"/><path class="cls-98" d="M838.44,456.19H823.63a.65.65,0,0,0-.64.65.64.64,0,0,0,.64.64h14.81a.64.64,0,0,0,.65-.64A.65.65,0,0,0,838.44,456.19Z" transform="translate(-678.5 -219.47)"/><path class="cls-99" d="M838.44,460.49H823.63a.65.65,0,0,0,0,1.29h14.81a.65.65,0,1,0,0-1.29Z" transform="translate(-678.5 -219.47)"/><path class="cls-100" d="M838.44,464.78H823.63a.65.65,0,0,0-.64.65.64.64,0,0,0,.64.64h14.81a.64.64,0,0,0,.65-.64A.65.65,0,0,0,838.44,464.78Z" transform="translate(-678.5 -219.47)"/><path class="cls-101" d="M838.44,469.08H823.63a.65.65,0,0,0,0,1.29h14.81a.65.65,0,1,0,0-1.29Z" transform="translate(-678.5 -219.47)"/><path class="cls-102" d="M839.09,474a.65.65,0,0,0-.65-.65H823.63a.65.65,0,0,0-.64.65.64.64,0,0,0,.64.64h14.81A.64.64,0,0,0,839.09,474Z" transform="translate(-678.5 -219.47)"/><path class="cls-103" d="M793.42,339.87a.79.79,0,0,0,0-1.58H782.83a.8.8,0,0,0-.65.34l-7.11,10.13a.78.78,0,0,0,0,1l7.77,9.35a.78.78,0,0,0,.6.28h9.94a.79.79,0,1,0,0-1.57h-9.57l-7.14-8.6,6.53-9.31Z" transform="translate(-678.5 -219.47)"/><path class="cls-104" d="M887.41,372.39s24.48-11.06,13.35-37.22-46-22-46-22V283.07H837.25v32.14H823.63V283.07H806.05v32.14H768.68v17.48h24.73v94.88H772.69v22.91h35.2v29.16H824V450.05h15v28.83h18V449.8s56.33,0,56.33-37.11S887.41,372.39,887.41,372.39Zm-63.46-40h22a18.59,18.59,0,0,1,11.29,3.75c4.22,3.17,8.94,8.53,8.94,16.5,0,14.41-17.39,16.78-21.13,16.78H824Zm15,96.87h-14V387.83h27.84a24.69,24.69,0,0,1,16,5.59,20,20,0,0,1,7.37,16C876.07,427.18,845.85,429.26,838.94,429.26Z" transform="translate(-678.5 -219.47)"/><path class="cls-105" d="M811,476.37V449.92a2.59,2.59,0,0,0-2.6-2.6H776a.11.11,0,0,1-.1-.11V430.84a.11.11,0,0,1,.1-.11h18a2.59,2.59,0,0,0,2.59-2.6v-96.6a2,2,0,0,0-2-2H771.94a.09.09,0,0,1-.1-.1v-11a.1.1,0,0,1,.1-.11h35.28a2,2,0,0,0,2-2v-30a.11.11,0,0,1,.11-.11h11a.11.11,0,0,1,.11.11v30a2,2,0,0,0,2,2h15.95a2,2,0,0,0,2-2v-30a.11.11,0,0,1,.11-.11h10.92a.11.11,0,0,1,.11.11v27.72a2.41,2.41,0,0,0,2.7,2.39l.84-.1a49,49,0,0,1,5-.22c10.89,0,30.28,2.63,37.79,20.28,9.76,22.93-10.87,32.7-11.75,33.11h0a3.16,3.16,0,0,0,.93,6h0c.93.12,23.1,3.5,23.1,37.16S857.48,446.64,857,446.64h-.56a2.6,2.6,0,0,0-2.6,2.6v26.38a.11.11,0,0,1-.1.1H842.24a.11.11,0,0,1-.11-.1V449.49a2.6,2.6,0,0,0-2.6-2.6H823.39a2.6,2.6,0,0,0-2.6,2.6v26.88a.11.11,0,0,1-.1.11h-9.54A.11.11,0,0,1,811,476.37Zm10.72-46.55a2.59,2.59,0,0,0,2.59,2.6h14.59c1.65,0,40.29-.26,40.29-23a23.29,23.29,0,0,0-8.5-18.4,27.87,27.87,0,0,0-18-6.33H824.82a3.06,3.06,0,0,0-3.06,3.06Zm-1-60.28a3,3,0,0,0,3.05,3h21.25c6.3,0,24.29-3.66,24.29-19.93,0-9.39-5.54-15.53-10.2-19A21.86,21.86,0,0,0,846,329.23H823.84a3,3,0,0,0-3.05,3Z" transform="translate(-678.5 -219.47)"/><path class="cls-106" d="M824,482H807.88a2.37,2.37,0,0,1-2.37-2.37V452.85H772.69a2.37,2.37,0,0,1-2.37-2.37v-22.9a2.37,2.37,0,0,1,2.37-2.37h18.36V335.07H768.67a2.38,2.38,0,0,1-2.37-2.37V315.21a2.37,2.37,0,0,1,2.37-2.37h35V283.07a2.37,2.37,0,0,1,2.37-2.37h17.57a2.37,2.37,0,0,1,2.37,2.37v29.77h8.89V283.07a2.37,2.37,0,0,1,2.37-2.37h17.45a2.38,2.38,0,0,1,2.37,2.37v27.61c8.65-.34,36,.44,45.86,23.56,8.64,20.29-2.77,32.29-9.79,37.4,8.13,3.31,22.5,13.12,22.5,41.05,0,34.47-45.35,38.84-56.33,39.39v26.81a2.38,2.38,0,0,1-2.37,2.37H839a2.38,2.38,0,0,1-2.37-2.37V452.43H826.33v27.2A2.38,2.38,0,0,1,824,482Zm-13.71-4.73h11.34V450.06a2.37,2.37,0,0,1,2.37-2.37h15a2.37,2.37,0,0,1,2.37,2.37v26.46h13.24V449.79a2.37,2.37,0,0,1,2.36-2.37c.54,0,54-.44,54-34.73,0-34.6-23.55-37.92-23.79-37.95a2.37,2.37,0,0,1-.68-4.51c.91-.42,22.22-10.48,12.14-34.13-10.3-24.19-43.26-20.57-43.59-20.53a2.43,2.43,0,0,1-1.86-.59,2.38,2.38,0,0,1-.79-1.77V285.44H839.63v29.77a2.37,2.37,0,0,1-2.37,2.37H823.63a2.38,2.38,0,0,1-2.37-2.37V285.44H808.43v29.77a2.37,2.37,0,0,1-2.37,2.37H771v12.75h22.38a2.37,2.37,0,0,1,2.37,2.37v94.88a2.37,2.37,0,0,1-2.37,2.37H775.06v18.16h32.82a2.38,2.38,0,0,1,2.37,2.37Z" transform="translate(-678.5 -219.47)"/><path class="cls-107" d="M845.08,371.79H824a2.37,2.37,0,0,1-2.37-2.37v-37A2.37,2.37,0,0,1,824,330h22a21.28,21.28,0,0,1,12.74,4.21c4.5,3.41,9.87,9.37,9.87,18.41C868.59,368.28,851.18,371.79,845.08,371.79Zm-18.76-4.74h18.76c.19,0,18.77-.84,18.77-14.4,0-7.09-4.35-11.87-8-14.63a16.44,16.44,0,0,0-9.88-3.25H826.32Z" transform="translate(-678.5 -219.47)"/><path class="cls-108" d="M838.94,431.63h-14a2.38,2.38,0,0,1-2.37-2.37V387.82a2.37,2.37,0,0,1,2.37-2.37h27.84a27.18,27.18,0,0,1,17.48,6.15,22.55,22.55,0,0,1,8.19,17.81C878.43,431.37,840.55,431.63,838.94,431.63Zm-11.65-4.74h11.65c9.66,0,34.75-3.14,34.75-17.48a17.75,17.75,0,0,0-6.5-14.18,22.4,22.4,0,0,0-14.43-5H827.29Z" transform="translate(-678.5 -219.47)"/><path class="cls-109" d="M824,482.4H807.88a2.77,2.77,0,0,1-2.76-2.76V453.25H772.69a2.77,2.77,0,0,1-2.77-2.77v-22.9a2.77,2.77,0,0,1,2.77-2.77h18V335.46h-22a2.77,2.77,0,0,1-2.76-2.76V315.21a2.77,2.77,0,0,1,2.76-2.76H803.3V283.07a2.77,2.77,0,0,1,2.76-2.77h17.57a2.77,2.77,0,0,1,2.77,2.77v29.38h8.09V283.07a2.78,2.78,0,0,1,2.77-2.77h17.45a2.77,2.77,0,0,1,2.76,2.77v27.2c8.8-.29,36,.8,45.83,23.82,8.46,19.85-1.95,31.86-9.36,37.45,8.55,3.7,22.11,13.88,22.11,41.15,0,34.72-46.06,39.2-56.34,39.77v26.43a2.77,2.77,0,0,1-2.76,2.76H839a2.77,2.77,0,0,1-2.76-2.76V452.82h-9.49v26.82A2.77,2.77,0,0,1,824,482.4Zm-51.27-56.8a2,2,0,0,0-2,2v22.9a2,2,0,0,0,2,2h33.22v27.18a2,2,0,0,0,2,2H824a2,2,0,0,0,2-2V452H837v26.86a2,2,0,0,0,2,2h18a2,2,0,0,0,2-2V451.71l.38,0c9.34-.47,56-4.55,56-39,0-27.51-14-37.3-22.26-40.69l-.66-.26.57-.42c7.24-5.27,18.13-17.06,9.67-36.92-9.77-22.93-37.29-23.65-45.49-23.33l-.41,0v-28a2,2,0,0,0-2-2H837.26a2,2,0,0,0-2,2v30.17h-9.67V283.07a2,2,0,0,0-2-2H806.06a2,2,0,0,0-2,2v30.17H768.67a2,2,0,0,0-2,2V332.7a2,2,0,0,0,2,2h22.78V425.6Z" transform="translate(-678.5 -219.47)"/><path class="cls-110" d="M822,477.66H809.86V450.48a2,2,0,0,0-2-2H774.66v-19h18.76a2,2,0,0,0,2-2V332.7a2,2,0,0,0-2-2H770.65V317.19h35.41a2,2,0,0,0,2-2V285h13.63v30.17a2,2,0,0,0,2,2h13.63a2,2,0,0,0,2-2V285h13.5v28.17a2,2,0,0,0,.67,1.48,2,2,0,0,0,1.54.48c.33,0,33.56-3.74,44,20.78,10.22,24-11.41,34.21-12.34,34.64a2,2,0,0,0-1.14,2.09,2,2,0,0,0,1.71,1.67c.24,0,24.14,3.38,24.14,38.34,0,34.73-53.82,35.13-54.36,35.13a2,2,0,0,0-2,2v27.12H841V450.06a2,2,0,0,0-2-2H824a2,2,0,0,0-2,2Zm-11.33-.79h10.54V450.06a2.77,2.77,0,0,1,2.77-2.77h15a2.77,2.77,0,0,1,2.77,2.77v26.06h12.44V449.79a2.77,2.77,0,0,1,2.76-2.76c.54,0,53.58-.39,53.58-34.34,0-34.17-23.21-37.53-23.44-37.56a2.76,2.76,0,0,1-.8-5.26c.89-.41,21.86-10.32,11.94-33.62C888,312.28,855.36,315.92,855,316a2.83,2.83,0,0,1-2.16-.68,2.77,2.77,0,0,1-.93-2.07V285.83H840v29.38a2.77,2.77,0,0,1-2.76,2.77H823.63a2.77,2.77,0,0,1-2.76-2.77V285.83h-12v29.38a2.77,2.77,0,0,1-2.76,2.77H771.44v11.95h22a2.77,2.77,0,0,1,2.77,2.77v94.88a2.77,2.77,0,0,1-2.77,2.76h-18v17.38h32.43a2.77,2.77,0,0,1,2.77,2.76Z" transform="translate(-678.5 -219.47)"/><path class="cls-111" d="M839.15,537.46c-86.76,0-157.34-70.58-157.34-157.34s70.58-157.33,157.34-157.33,157.33,70.58,157.33,157.33S925.9,537.46,839.15,537.46Zm0-313.1c-85.89,0-155.76,69.88-155.76,155.76s69.87,155.76,155.76,155.76S994.91,466,994.91,380.12,925,224.36,839.15,224.36Z" transform="translate(-678.5 -219.47)"/><path class="cls-112" d="M839.15,533.68c-84.67,0-153.56-68.88-153.56-153.56s68.89-153.55,153.56-153.55S992.7,295.45,992.7,380.12,923.82,533.68,839.15,533.68Zm0-305.93c-84,0-152.38,68.36-152.38,152.37S755.13,532.5,839.15,532.5s152.37-68.36,152.37-152.38S923.17,227.75,839.15,227.75Z" transform="translate(-678.5 -219.47)"/><path class="cls-112" d="M839.15,533.68c-84.67,0-153.56-68.88-153.56-153.56s68.89-153.55,153.56-153.55S992.7,295.45,992.7,380.12,923.82,533.68,839.15,533.68Zm0-305.93c-84,0-152.38,68.36-152.38,152.37S755.13,532.5,839.15,532.5s152.37-68.36,152.37-152.38S923.17,227.75,839.15,227.75Z" transform="translate(-678.5 -219.47)"/><circle class="cls-113" cx="839.15" cy="380.12" r="152.96" transform="translate(-701.51 485.23) rotate(-45)"/></g></g></svg>