<svg width="235" height="238" viewBox="0 0 235 238" fill="none" xmlns="http://www.w3.org/2000/svg">
<g clip-path="url(#clip0)">
<path d="M210.276 57.7633C210.276 57.7633 265.91 96.1536 210.276 148.526C154.642 200.91 90.0451 231.32 49.6708 233.109C9.28541 234.91 3.00967 138.29 27.232 74.7689C51.4655 11.2481 134.009 0.511284 210.276 57.7633Z" fill="url(#paint0_linear)"/>
<path d="M126.719 45.5704C139.339 45.5704 149.57 35.3692 149.57 22.7852C149.57 10.2013 139.339 0 126.719 0C114.098 0 103.867 10.2013 103.867 22.7852C103.867 35.3692 114.098 45.5704 126.719 45.5704Z" fill="#191919"/>
<path d="M134.254 59.1416C146.874 59.1416 157.105 48.9403 157.105 36.3563C157.105 23.7724 146.874 13.5711 134.254 13.5711C121.633 13.5711 111.403 23.7724 111.403 36.3563C111.403 48.9403 121.633 59.1416 134.254 59.1416Z" fill="#191919"/>
<path d="M131.032 83.4162C143.653 83.4162 153.884 73.2149 153.884 60.6309C153.884 48.047 143.653 37.8457 131.032 37.8457C118.412 37.8457 108.181 48.047 108.181 60.6309C108.181 73.2149 118.412 83.4162 131.032 83.4162Z" fill="#191919"/>
<path d="M106.465 77.8588C119.085 77.8588 129.316 67.6575 129.316 55.0736C129.316 42.4896 119.085 32.2883 106.465 32.2883C93.8441 32.2883 83.6133 42.4896 83.6133 55.0736C83.6133 67.6575 93.8441 77.8588 106.465 77.8588Z" fill="#191919"/>
<path d="M109.775 51.439C122.396 51.439 132.626 41.2377 132.626 28.6538C132.626 16.0699 122.396 5.86859 109.775 5.86859C97.1548 5.86859 86.9239 16.0699 86.9239 28.6538C86.9239 41.2377 97.1548 51.439 109.775 51.439Z" fill="#191919"/>
<path d="M12.4511 85.2723C12.4511 85.2723 3.36638 79.5705 2.39659 79.426C1.42681 79.2815 1.2596 80.4707 2.86476 81.371C4.48107 82.2713 7.16749 84.4276 7.16749 84.4276C7.16749 84.4276 1.03666 81.2821 0.434729 81.5378C-0.167206 81.7934 -0.267528 82.6937 0.891754 83.1383C2.05104 83.5829 6.44293 86.1393 6.44293 86.1393C6.44293 86.1393 2.352 84.8166 1.18157 84.7388C0.0111454 84.6499 1.10355 85.917 2.21824 86.2504C3.33294 86.5839 6.7439 88.151 6.7439 88.151C6.7439 88.151 3.43326 87.9399 2.86476 88.2844C2.29627 88.6179 2.66412 89.0291 3.16573 89.1625C3.66734 89.2959 8.34906 89.507 8.34906 89.507C8.34906 89.507 11.983 92.0301 14.6917 91.0742C17.4115 90.1072 17.3224 88.4178 17.0437 88.051C16.7539 87.6842 12.3954 81.8156 11.3253 81.1599C10.2663 80.493 9.6644 81.3044 11.0689 82.7826C12.4623 84.2498 13.0865 85.1612 12.4511 85.2723Z" fill="#FFCB9C"/>
<path d="M219.071 84.6276C219.071 84.6276 228.156 78.9258 229.126 78.7813C230.095 78.6368 230.274 79.8261 228.657 80.7153C227.041 81.6156 224.355 83.7718 224.355 83.7718C224.355 83.7718 230.485 80.6263 231.087 80.882C231.689 81.1376 231.79 82.0379 230.63 82.4825C229.471 82.9271 225.079 85.4835 225.079 85.4835C225.079 85.4835 229.17 84.1608 230.341 84.0719C231.511 83.983 230.419 85.2501 229.304 85.5835C228.189 85.9281 224.778 87.4841 224.778 87.4841C224.778 87.4841 228.089 87.273 228.657 87.6175C229.226 87.951 228.858 88.3622 228.356 88.4956C227.855 88.629 223.173 88.8401 223.173 88.8401C223.173 88.8401 219.539 91.3632 216.83 90.4073C214.111 89.4403 214.2 87.7509 214.478 87.3841C214.757 87.0173 219.127 81.1487 220.197 80.4819C221.256 79.815 221.858 80.6263 220.453 82.1046C219.06 83.594 218.424 84.5054 219.071 84.6276Z" fill="#FFCB9C"/>
<path d="M131.032 60.6309H106.465V71.2677H131.032V60.6309Z" fill="#EDEEF0"/>
<path d="M86.2105 70.2896C86.2105 70.2896 96.9562 121.429 83.4572 158.996C83.4572 158.996 64.9979 142.869 143.573 160.808C147.062 161.608 155.244 161.242 156.626 164.954C156.626 164.954 144.386 120.873 147.296 70.9121L132.593 67.2553C119.027 64.3655 104.949 64.8768 91.6168 68.7336L86.2105 70.2896Z" fill="#191919"/>
<path d="M88.0163 69.7672L16.3303 84.2609V92.8748L90.4129 92.3524L88.0163 69.7672Z" fill="#191919"/>
<path d="M139.493 68.967L214.345 84.2609V92.8748L143.929 91.2743L139.493 68.967Z" fill="#191919"/>
<path d="M16.3303 85.3501H14.413V92.3524H16.3303V85.3501Z" fill="white"/>
<path d="M216.262 85.3501H214.345V92.3524H216.262V85.3501Z" fill="white"/>
<path d="M100.635 66.6551L119.506 128.575L137.174 68.4001C137.174 68.389 124.121 62.2648 100.635 66.6551Z" fill="#EDEEF0"/>
<path d="M134.064 11.0258C130.408 8.75841 120.766 8.88068 114.29 11.2703C103.31 15.3272 95.6743 26.0307 95.1392 37.1788C94.8048 44.2367 95.8303 48.2602 105.049 53.6397C106.977 54.7623 108.46 56.5296 109.251 58.608C110.511 61.9313 111.904 67.1775 110.879 72.4459C110.79 72.8794 110.689 73.2684 110.7 73.6463C111.492 73.4907 112.306 73.5351 113.075 73.8352C113.376 73.9575 113.688 74.0353 114 74.1353C114.847 73.4907 115.951 73.0794 117.31 73.0794C118.782 73.0794 119.952 73.5574 120.822 74.302C122.204 73.9353 123.519 73.3351 124.667 72.457C126.05 71.39 127.911 71.4456 129.505 72.1236C129.528 71.5345 129.483 70.9009 129.327 70.2229C126.841 58.7414 133.864 46.2818 138.791 39.2795C143.718 32.2772 143.372 16.7944 134.064 11.0258Z" fill="#FFCB9C"/>
<path d="M100.635 66.6551L106.453 60.6309L118.905 73.4129C113.621 78.1811 105.227 76.4805 102.218 70.0451L100.635 66.6551Z" fill="white"/>
<path d="M107.68 28.6649C107.68 31.7104 105.205 34.1778 102.151 34.1778C99.0964 34.1778 96.6218 31.7104 96.6218 28.6649C96.6218 25.6195 99.0964 23.152 102.151 23.152C103.923 23.152 105.495 23.9856 106.509 25.2749C107.234 26.2086 107.68 27.3867 107.68 28.6649Z" stroke="#211915" stroke-miterlimit="10"/>
<path d="M137.174 68.389L131.122 60.6309L118.905 73.4129L119.863 74.1798C125.002 78.27 132.615 76.7473 135.759 70.9787L137.174 68.389Z" fill="white"/>
<path d="M137.91 36.9565C137.91 36.9565 140.139 35.7228 142.458 36.7898C144.765 37.8457 143.606 46.7486 137.665 47.2821C131.724 47.8156 134.755 42.6361 134.755 42.6361L137.91 36.9565Z" fill="#FFCB9C"/>
<path d="M111.325 41.9804C111.325 41.9804 113.019 40.7022 114.579 40.5021C116.14 40.3021 117.723 40.68 118.28 42.6028C118.838 44.5257 117.076 46.2151 114.869 47.6934C113.565 48.5603 108.984 49.9274 106.297 49.016C103.611 48.1046 102.162 47.2821 101.404 45.6371C100.635 43.9922 101.794 42.0915 103.087 41.4246C104.38 40.7689 105.863 41.269 106.576 41.7025C107.289 42.1582 109.039 43.2252 111.325 41.9804Z" fill="url(#paint1_linear)"/>
<path d="M117.411 29.0651C117.411 30.4322 116.82 31.5325 116.095 31.5325C115.371 31.5325 114.78 30.4322 114.78 29.0651C114.78 27.6979 115.371 26.5976 116.095 26.5976C116.82 26.5976 117.411 27.6979 117.411 29.0651Z" fill="#191919"/>
<path d="M104.781 29.0651C104.781 30.4322 104.191 31.5325 103.466 31.5325C102.741 31.5325 102.151 30.4322 102.151 29.0651C102.151 27.6979 102.741 26.5976 103.466 26.5976C104.191 26.5976 104.781 27.6979 104.781 29.0651Z" fill="#191919"/>
<path d="M110.801 18.5394L102.741 36.1896L112.562 36.8787L110.801 18.5394Z" fill="#FF6252"/>
<path d="M85.3188 85.7947C85.3188 85.7947 82.532 108.636 98.1377 111.025C113.743 113.426 85.3188 85.7947 85.3188 85.7947Z" fill="#191919"/>
<path d="M151.699 85.7947C151.699 85.7947 154.486 108.636 138.88 111.025C123.274 113.426 151.699 85.7947 151.699 85.7947Z" fill="#191919"/>
<path d="M136.205 87.7398C137.282 87.7398 138.155 86.8689 138.155 85.7947C138.155 84.7205 137.282 83.8496 136.205 83.8496C135.127 83.8496 134.254 84.7205 134.254 85.7947C134.254 86.8689 135.127 87.7398 136.205 87.7398Z" fill="#444242"/>
<path d="M137.174 96.7649C138.252 96.7649 139.125 95.8941 139.125 94.8199C139.125 93.7456 138.252 92.8748 137.174 92.8748C136.097 92.8748 135.224 93.7456 135.224 94.8199C135.224 95.8941 136.097 96.7649 137.174 96.7649Z" fill="#444242"/>
<path d="M134.209 105.79C135.287 105.79 136.16 104.919 136.16 103.845C136.16 102.771 135.287 101.9 134.209 101.9C133.132 101.9 132.259 102.771 132.259 103.845C132.259 104.919 133.132 105.79 134.209 105.79Z" fill="#444242"/>
<path d="M129.75 114.815C130.828 114.815 131.701 113.944 131.701 112.87C131.701 111.796 130.828 110.925 129.75 110.925C128.673 110.925 127.8 111.796 127.8 112.87C127.8 113.944 128.673 114.815 129.75 114.815Z" fill="#444242"/>
<path d="M125.247 123.84C126.324 123.84 127.198 122.97 127.198 121.895C127.198 120.821 126.324 119.95 125.247 119.95C124.17 119.95 123.296 120.821 123.296 121.895C123.296 122.97 124.17 123.84 125.247 123.84Z" fill="#444242"/>
<path d="M102.585 87.7398C103.663 87.7398 104.536 86.8689 104.536 85.7947C104.536 84.7205 103.663 83.8496 102.585 83.8496C101.508 83.8496 100.635 84.7205 100.635 85.7947C100.635 86.8689 101.508 87.7398 102.585 87.7398Z" fill="#444242"/>
<path d="M101.917 96.7649C102.994 96.7649 103.867 95.8941 103.867 94.8199C103.867 93.7456 102.994 92.8748 101.917 92.8748C100.839 92.8748 99.9658 93.7456 99.9658 94.8199C99.9658 95.8941 100.839 96.7649 101.917 96.7649Z" fill="#444242"/>
<path d="M105.818 105.79C106.895 105.79 107.769 104.919 107.769 103.845C107.769 102.771 106.895 101.9 105.818 101.9C104.741 101.9 103.867 102.771 103.867 103.845C103.867 104.919 104.741 105.79 105.818 105.79Z" fill="#444242"/>
<path d="M110.99 114.815C112.068 114.815 112.941 113.944 112.941 112.87C112.941 111.796 112.068 110.925 110.99 110.925C109.913 110.925 109.039 111.796 109.039 112.87C109.039 113.944 109.913 114.815 110.99 114.815Z" fill="#444242"/>
<path d="M113.554 123.84C114.631 123.84 115.505 122.97 115.505 121.895C115.505 120.821 114.631 119.95 113.554 119.95C112.477 119.95 111.603 120.821 111.603 121.895C111.603 122.97 112.477 123.84 113.554 123.84Z" fill="#444242"/>
<path d="M104.525 16.7721C104.525 16.7721 106.598 25.5639 117.411 25.5639C128.223 25.5639 134.733 31.2213 133.986 36.3563C133.239 41.4913 137.074 42.1471 140.362 36.3563C140.362 36.3563 144.933 30.4655 141.945 20.0065C138.958 9.54756 130.587 7.60248 123.508 8.52501C116.43 9.43642 112.473 9.24747 104.525 16.7721Z" fill="#191919"/>
<path d="M105.183 15.3717C105.183 15.3717 130.943 8.24714 140.351 36.3563L140.875 36.4675C140.875 36.4675 142.425 14.9493 128.636 8.04707C120.209 3.83459 109.909 7.2357 105.183 15.3606V15.3717Z" fill="url(#paint2_linear)"/>
<path d="M139.493 46.3596C139.493 47.8045 138.322 48.9716 136.873 48.9716C135.424 48.9716 134.254 47.8045 134.254 46.3596C134.254 44.9147 135.424 43.7476 136.873 43.7476C138.322 43.7476 139.493 44.9258 139.493 46.3596Z" fill="url(#paint3_linear)"/>
<path opacity="0.39" d="M121.491 37.0232C121.491 38.0569 119.986 38.9016 118.135 38.9016C116.285 38.9016 114.78 38.0569 114.78 37.0232C114.78 35.9895 116.285 35.1448 118.135 35.1448C119.986 35.1559 121.491 35.9895 121.491 37.0232Z" fill="#FF6252"/>
<path opacity="0.39" d="M104.514 37.0232C104.514 38.0569 103.009 38.9016 101.159 38.9016C99.3082 38.9016 97.8033 38.0569 97.8033 37.0232C97.8033 35.9895 99.3082 35.1448 101.159 35.1448C103.009 35.1559 104.514 35.9895 104.514 37.0232Z" fill="#FF6252"/>
<path d="M122.94 28.6649C122.94 31.7104 120.465 34.1778 117.411 34.1778C114.357 34.1778 111.882 31.7104 111.882 28.6649C111.882 25.6195 114.357 23.152 117.411 23.152C120.465 23.152 122.94 25.6195 122.94 28.6649Z" stroke="#211915" stroke-miterlimit="10"/>
<path d="M112.974 25.375L106.643 25.4639" stroke="#211915" stroke-miterlimit="10"/>
<path d="M140.362 36.3563L122.895 28.0425" stroke="#211915" stroke-miterlimit="10"/>
<path d="M96.1424 196.82C95.0277 220.639 74.7626 239.056 50.8635 237.944C26.9756 236.833 8.50512 216.626 9.61981 192.796C10.7345 168.966 30.9997 150.56 54.8987 151.672C78.7866 152.783 97.2571 173.001 96.1424 196.82Z" fill="#9B9B9A"/>
<path opacity="0.4" d="M84.3713 194.686C83.5018 213.27 67.6954 227.63 49.0577 226.774C30.42 225.907 16.0182 210.146 16.8765 191.551C17.7459 172.968 33.5523 158.607 52.2012 159.463C70.8277 160.341 85.2407 176.102 84.3713 194.686Z" fill="#ACACAC"/>
<path d="M54.8987 151.672C31.0108 150.56 10.7345 168.977 9.61981 192.796C8.50512 216.615 26.9756 236.833 50.8635 237.944C74.7626 239.056 95.0277 220.639 96.1424 196.82C97.2571 173.001 78.7866 152.783 54.8987 151.672ZM50.4734 230.342C30.7767 229.431 15.55 212.77 16.4752 193.119C17.3892 173.479 34.0985 158.296 53.7952 159.219C73.4918 160.13 88.7186 176.791 87.7934 196.431C86.8793 216.071 70.17 231.253 50.4734 230.342Z" fill="#BCBCBC"/>
<path d="M54.2406 165.621L34.9675 194.975L52.3456 206.201L54.2406 165.621Z" fill="#BCBCBC"/>
<path d="M53.2155 187.761L34.968 194.975L52.3461 206.201L53.2155 187.761Z" fill="#858585"/>
<path d="M54.2411 165.621L70.7051 196.631L52.3461 206.201L54.2411 165.621Z" fill="#BCBCBC"/>
<path d="M53.2155 187.761L70.7051 196.631L52.3461 206.201L53.2155 187.761Z" fill="#858585"/>
<path opacity="0.71" d="M54.2411 165.621L70.7051 196.631L52.3461 206.201L54.2411 165.621Z" fill="#9B9B9A"/>
<path d="M34.8565 197.453L51.5212 224.018L52.19 209.657L34.8565 197.453Z" fill="#BCBCBC"/>
<path d="M70.5825 199.11L51.5212 224.018L52.19 209.657L70.5825 199.11Z" fill="#858585"/>
<path d="M232.982 194.908C233.205 218.494 214.211 237.789 190.557 238C166.903 238.222 147.552 219.272 147.34 195.697C147.117 172.112 166.123 152.817 189.766 152.605C213.408 152.383 232.759 171.323 232.982 194.908Z" fill="#858585"/>
<path opacity="0.4" d="M220.721 192.207C220.899 211.247 205.561 226.819 186.477 226.985C167.383 227.163 151.766 211.869 151.587 192.841C151.409 173.801 166.747 158.229 185.831 158.063C204.926 157.885 220.542 173.179 220.721 192.207Z" fill="#ACACAC"/>
<path d="M189.766 152.594C166.112 152.817 147.117 172.101 147.34 195.686C147.563 219.272 166.914 238.211 190.557 237.989C214.211 237.767 233.205 218.471 232.982 194.897C232.759 171.323 213.408 152.383 189.766 152.594ZM189.743 230.509C170.247 230.686 154.296 215.07 154.118 195.631C153.939 176.191 169.601 160.286 189.097 160.108C208.593 159.93 224.544 175.546 224.723 194.986C224.901 214.415 209.239 230.331 189.743 230.509Z" fill="#BCBCBC"/>
<path d="M175.397 175.257L182.966 175.191C183.679 175.191 184.248 174.601 184.248 173.89L184.203 168.666C184.203 167.955 184.772 167.377 185.485 167.366L191.772 167.31C192.486 167.31 193.065 167.877 193.076 168.588L193.121 173.812C193.121 174.524 193.712 175.091 194.425 175.079L202.808 175.002C203.521 174.991 204.101 175.568 204.112 176.269L204.168 182.237C204.168 182.515 204.078 182.782 203.922 183.004L188.473 204.056C187.848 204.911 188.461 206.112 189.52 206.101L203.097 205.978C203.811 205.967 204.39 206.545 204.402 207.257L204.468 214.281C204.48 214.992 203.9 215.57 203.198 215.582L194.514 215.659C193.801 215.67 193.232 216.248 193.232 216.96L193.277 221.95C193.288 222.662 192.708 223.24 192.006 223.251L186.121 223.306C185.407 223.317 184.828 222.739 184.816 222.028L184.772 217.16C184.761 216.449 184.181 215.882 183.468 215.882L174.494 215.959C173.781 215.971 173.201 215.393 173.19 214.692L173.146 209.191C173.146 208.913 173.235 208.646 173.391 208.424L189.197 186.828C189.821 185.972 189.208 184.771 188.149 184.783L175.498 184.894C174.784 184.905 174.205 184.327 174.193 183.627L174.127 176.558C174.115 175.846 174.684 175.268 175.397 175.257Z" fill="#BCBCBC"/>
<path d="M175.263 180.559C176.378 211.147 152.423 236.844 121.747 237.956C91.0705 239.067 65.2987 215.181 64.1841 184.594C63.0694 154.006 87.0241 128.309 117.701 127.197C148.366 126.086 174.149 149.971 175.263 180.559Z" fill="#E6B54A"/>
<path opacity="0.33" d="M159.58 178.214C160.427 201.288 142.347 220.672 119.217 221.506C96.0755 222.35 76.6353 204.322 75.7993 181.248C74.9521 158.174 93.0324 138.79 116.162 137.956C139.292 137.123 158.733 155.151 159.58 178.214Z" fill="#FFE0A9"/>
<path d="M117.701 127.197C87.0242 128.309 63.0583 154.006 64.1841 184.594C65.2988 215.181 91.0706 239.078 121.747 237.956C152.423 236.844 176.389 211.147 175.263 180.559C174.149 149.971 148.366 126.086 117.701 127.197ZM120.432 228.263C95.1392 229.186 73.8931 209.491 72.9791 184.271C72.0539 159.063 91.8063 137.867 117.099 136.956C142.391 136.033 163.637 155.729 164.551 180.948C165.476 206.167 145.713 227.352 120.432 228.263Z" fill="#FFEB78"/>
<path d="M146.895 187.183C145.769 185.138 145.646 184.216 142.982 181.593C142.369 180.992 142.269 180.048 142.737 179.336C143.528 178.125 144.632 175.991 145.033 172.945C145.691 167.955 144.52 163.02 141.21 158.985C138.155 155.262 133.239 152.939 129.26 152.739C128.703 152.705 128.257 152.305 128.235 151.75L128.056 147.648C128.012 146.67 127.532 146.237 126.964 146.259L117.545 146.67C116.976 146.692 116.541 147.17 116.564 147.737L116.753 152.061C116.775 152.628 116.341 153.106 115.772 153.128L113.075 153.25C112.506 153.272 112.027 152.839 112.005 152.272L111.815 147.948C111.793 147.381 111.313 146.948 110.745 146.97L101.415 147.381C100.846 147.404 100.412 147.882 100.434 148.449L100.624 152.739C100.646 153.306 100.211 153.784 99.6426 153.806L93.4449 154.084C92.8764 154.106 92.4416 154.584 92.4639 155.151L92.8764 164.487C92.8987 165.065 93.3891 165.499 93.9688 165.465L97.5024 165.243C98.0709 165.21 98.5725 165.643 98.5948 166.221L100.155 201.521C100.178 202.088 99.7429 202.566 99.1744 202.588L95.5962 202.744C95.0277 202.766 94.593 203.244 94.6153 203.811L95.0389 213.314C95.0612 213.881 95.5405 214.314 96.109 214.292L102.296 214.014C102.864 213.992 103.343 214.426 103.366 214.992L103.511 218.16C103.533 218.727 104.012 219.16 104.581 219.138L114.078 218.716C114.646 218.694 115.081 218.216 115.059 217.649L114.958 215.304C114.914 214.314 115.683 213.47 116.675 213.425L117.611 213.381C118.604 213.336 119.451 214.103 119.495 215.093L119.596 217.438C119.618 218.005 120.097 218.438 120.666 218.416L129.996 218.005C130.564 217.982 130.999 217.504 130.977 216.938L130.865 214.392C130.821 213.459 131.512 212.658 132.448 212.536C134.588 212.258 138.389 211.458 141.321 209.091C141.321 209.091 144.855 206.756 146.482 202.889C147.942 199.421 148.299 196.053 148.355 195.397C148.366 195.319 148.366 195.253 148.355 195.175C148.31 194.397 148.065 189.306 146.895 187.183ZM109.731 165.265C109.719 164.832 110.065 164.454 110.5 164.443L126.128 163.876C127.967 163.809 129.795 164.587 130.832 166.099C133.975 170.722 130.743 175.824 126.228 175.991L110.934 176.547C110.5 176.558 110.121 176.213 110.11 175.78L109.731 165.265ZM127.209 200.521L111.915 201.077C111.481 201.088 111.113 200.754 111.091 200.31L110.7 189.784C110.689 189.351 111.035 188.973 111.469 188.962L127.098 188.395C128.937 188.328 130.765 189.106 131.802 190.618C134.956 195.242 131.724 200.354 127.209 200.521Z" fill="#FFEB78"/>
<path d="M87.838 137.389C87.838 137.389 87.459 147.304 77.8949 147.304C77.8949 147.304 87.838 145.548 87.838 155.829" fill="white"/>
<path d="M87.838 137.389C87.838 137.389 88.2058 147.304 97.781 147.304C97.781 147.304 87.838 145.548 87.838 155.829" fill="white"/>
<path d="M164.585 196.975C164.585 196.975 164.206 206.89 154.642 206.89C154.642 206.89 164.585 205.134 164.585 215.415" fill="white"/>
<path d="M164.585 196.975C164.585 196.975 164.964 206.89 174.528 206.89C174.528 206.89 164.585 205.134 164.585 215.415" fill="white"/>
<path d="M29.885 215.004C29.885 215.004 29.506 224.918 19.9419 224.918C19.9419 224.918 29.885 223.162 29.885 233.443" fill="white"/>
<path d="M29.885 215.004C29.885 215.004 30.264 224.918 39.828 224.918C39.828 224.918 29.885 223.162 29.885 233.443" fill="white"/>
</g>
<defs>
<linearGradient id="paint0_linear" x1="13.024" y1="126.762" x2="234.998" y2="126.762" gradientUnits="userSpaceOnUse">
<stop stop-color="#2ACAFF"/>
<stop offset="1" stop-color="#2ADFC3"/>
</linearGradient>
<linearGradient id="paint1_linear" x1="101.166" y1="44.3047" x2="118.281" y2="45.2553" gradientUnits="userSpaceOnUse">
<stop stop-color="white"/>
<stop offset="1" stop-color="#F7F7F8"/>
</linearGradient>
<linearGradient id="paint2_linear" x1="105.184" y1="21.347" x2="140.936" y2="21.347" gradientUnits="userSpaceOnUse">
<stop stop-color="white"/>
<stop offset="1" stop-color="#F7F7F8"/>
</linearGradient>
<linearGradient id="paint3_linear" x1="134.259" y1="46.3638" x2="139.496" y2="46.3638" gradientUnits="userSpaceOnUse">
<stop stop-color="white"/>
<stop offset="1" stop-color="#F7F7F8"/>
</linearGradient>
<clipPath id="clip0">
<rect width="235" height="238" fill="white"/>
</clipPath>
</defs>
</svg>
